<?xml version="1.0" encoding="utf-8" standalone="no"?>
<!DOCTYPE svg PUBLIC "-//W3C//DTD SVG 1.1//EN"
  "http://www.w3.org/Graphics/SVG/1.1/DTD/svg11.dtd">
<svg xmlns:xlink="http://www.w3.org/1999/xlink" width="857.004375pt" height="568.824375pt" viewBox="0 0 857.004375 568.824375" xmlns="http://www.w3.org/2000/svg" version="1.1">
 <metadata>
  <rdf:RDF xmlns:dc="http://purl.org/dc/elements/1.1/" xmlns:cc="http://creativecommons.org/ns#" xmlns:rdf="http://www.w3.org/1999/02/22-rdf-syntax-ns#">
   <cc:Work>
    <dc:type rdf:resource="http://purl.org/dc/dcmitype/StillImage"/>
    <dc:date>2025-08-19T14:01:11.934093</dc:date>
    <dc:format>image/svg+xml</dc:format>
    <dc:creator>
     <cc:Agent>
      <dc:title>Matplotlib v3.10.5, https://matplotlib.org/</dc:title>
     </cc:Agent>
    </dc:creator>
   </cc:Work>
  </rdf:RDF>
 </metadata>
 <defs>
  <style type="text/css">*{stroke-linejoin: round; stroke-linecap: butt}</style>
 </defs>
 <g id="figure_1">
  <g id="patch_1">
   <path d="M 0 568.824375 
L 857.004375 568.824375 
L 857.004375 0 
L 0 0 
z
" style="fill: #ffffff"/>
  </g>
  <g id="axes_1">
   <g id="patch_2">
    <path d="M 58.284375 523.055625 
L 849.804375 523.055625 
L 849.804375 41.515625 
L 58.284375 41.515625 
z
" style="fill: #ffffff"/>
   </g>
   <g id="matplotlib.axis_1">
    <g id="xtick_1">
     <g id="line2d_1">
      <path d="M 94.262557 523.055625 
L 94.262557 41.515625 
" clip-path="url(#p959a5376f7)" style="fill: none; stroke: #cccccc; stroke-opacity: 0.3; stroke-width: 0.8; stroke-linecap: round"/>
     </g>
     <g id="line2d_2"/>
     <g id="text_1">
      <!-- 1 -->
      <g style="fill: #262626" transform="translate(89.813807 538.008125) scale(0.16 -0.16)">
       <defs>
        <path id="ArialMT-31" d="M 2384 0 
L 1822 0 
L 1822 3584 
Q 1619 3391 1289 3197 
Q 959 3003 697 2906 
L 697 3450 
Q 1169 3672 1522 3987 
Q 1875 4303 2022 4600 
L 2384 4600 
L 2384 0 
z
" transform="scale(0.015625)"/>
       </defs>
       <use xlink:href="#ArialMT-31"/>
      </g>
     </g>
    </g>
    <g id="xtick_2">
     <g id="line2d_3">
      <path d="M 142.233466 523.055625 
L 142.233466 41.515625 
" clip-path="url(#p959a5376f7)" style="fill: none; stroke: #cccccc; stroke-opacity: 0.3; stroke-width: 0.8; stroke-linecap: round"/>
     </g>
     <g id="line2d_4"/>
     <g id="text_2">
      <!-- 2 -->
      <g style="fill: #262626" transform="translate(137.784716 538.008125) scale(0.16 -0.16)">
       <defs>
        <path id="ArialMT-32" d="M 3222 541 
L 3222 0 
L 194 0 
Q 188 203 259 391 
Q 375 700 629 1000 
Q 884 1300 1366 1694 
Q 2113 2306 2375 2664 
Q 2638 3022 2638 3341 
Q 2638 3675 2398 3904 
Q 2159 4134 1775 4134 
Q 1369 4134 1125 3890 
Q 881 3647 878 3216 
L 300 3275 
Q 359 3922 746 4261 
Q 1134 4600 1788 4600 
Q 2447 4600 2831 4234 
Q 3216 3869 3216 3328 
Q 3216 3053 3103 2787 
Q 2991 2522 2730 2228 
Q 2469 1934 1863 1422 
Q 1356 997 1212 845 
Q 1069 694 975 541 
L 3222 541 
z
" transform="scale(0.015625)"/>
       </defs>
       <use xlink:href="#ArialMT-32"/>
      </g>
     </g>
    </g>
    <g id="xtick_3">
     <g id="line2d_5">
      <path d="M 190.204375 523.055625 
L 190.204375 41.515625 
" clip-path="url(#p959a5376f7)" style="fill: none; stroke: #cccccc; stroke-opacity: 0.3; stroke-width: 0.8; stroke-linecap: round"/>
     </g>
     <g id="line2d_6"/>
     <g id="text_3">
      <!-- 3 -->
      <g style="fill: #262626" transform="translate(185.755625 538.008125) scale(0.16 -0.16)">
       <defs>
        <path id="ArialMT-33" d="M 269 1209 
L 831 1284 
Q 928 806 1161 595 
Q 1394 384 1728 384 
Q 2125 384 2398 659 
Q 2672 934 2672 1341 
Q 2672 1728 2419 1979 
Q 2166 2231 1775 2231 
Q 1616 2231 1378 2169 
L 1441 2663 
Q 1497 2656 1531 2656 
Q 1891 2656 2178 2843 
Q 2466 3031 2466 3422 
Q 2466 3731 2256 3934 
Q 2047 4138 1716 4138 
Q 1388 4138 1169 3931 
Q 950 3725 888 3313 
L 325 3413 
Q 428 3978 793 4289 
Q 1159 4600 1703 4600 
Q 2078 4600 2393 4439 
Q 2709 4278 2876 4000 
Q 3044 3722 3044 3409 
Q 3044 3113 2884 2869 
Q 2725 2625 2413 2481 
Q 2819 2388 3044 2092 
Q 3269 1797 3269 1353 
Q 3269 753 2831 336 
Q 2394 -81 1725 -81 
Q 1122 -81 723 278 
Q 325 638 269 1209 
z
" transform="scale(0.015625)"/>
       </defs>
       <use xlink:href="#ArialMT-33"/>
      </g>
     </g>
    </g>
    <g id="xtick_4">
     <g id="line2d_7">
      <path d="M 238.175284 523.055625 
L 238.175284 41.515625 
" clip-path="url(#p959a5376f7)" style="fill: none; stroke: #cccccc; stroke-opacity: 0.3; stroke-width: 0.8; stroke-linecap: round"/>
     </g>
     <g id="line2d_8"/>
     <g id="text_4">
      <!-- 4 -->
      <g style="fill: #262626" transform="translate(233.726534 538.008125) scale(0.16 -0.16)">
       <defs>
        <path id="ArialMT-34" d="M 2069 0 
L 2069 1097 
L 81 1097 
L 81 1613 
L 2172 4581 
L 2631 4581 
L 2631 1613 
L 3250 1613 
L 3250 1097 
L 2631 1097 
L 2631 0 
L 2069 0 
z
M 2069 1613 
L 2069 3678 
L 634 1613 
L 2069 1613 
z
" transform="scale(0.015625)"/>
       </defs>
       <use xlink:href="#ArialMT-34"/>
      </g>
     </g>
    </g>
    <g id="xtick_5">
     <g id="line2d_9">
      <path d="M 286.146193 523.055625 
L 286.146193 41.515625 
" clip-path="url(#p959a5376f7)" style="fill: none; stroke: #cccccc; stroke-opacity: 0.3; stroke-width: 0.8; stroke-linecap: round"/>
     </g>
     <g id="line2d_10"/>
     <g id="text_5">
      <!-- 5 -->
      <g style="fill: #262626" transform="translate(281.697443 538.008125) scale(0.16 -0.16)">
       <defs>
        <path id="ArialMT-35" d="M 266 1200 
L 856 1250 
Q 922 819 1161 601 
Q 1400 384 1738 384 
Q 2144 384 2425 690 
Q 2706 997 2706 1503 
Q 2706 1984 2436 2262 
Q 2166 2541 1728 2541 
Q 1456 2541 1237 2417 
Q 1019 2294 894 2097 
L 366 2166 
L 809 4519 
L 3088 4519 
L 3088 3981 
L 1259 3981 
L 1013 2750 
Q 1425 3038 1878 3038 
Q 2478 3038 2890 2622 
Q 3303 2206 3303 1553 
Q 3303 931 2941 478 
Q 2500 -78 1738 -78 
Q 1113 -78 717 272 
Q 322 622 266 1200 
z
" transform="scale(0.015625)"/>
       </defs>
       <use xlink:href="#ArialMT-35"/>
      </g>
     </g>
    </g>
    <g id="xtick_6">
     <g id="line2d_11">
      <path d="M 334.117102 523.055625 
L 334.117102 41.515625 
" clip-path="url(#p959a5376f7)" style="fill: none; stroke: #cccccc; stroke-opacity: 0.3; stroke-width: 0.8; stroke-linecap: round"/>
     </g>
     <g id="line2d_12"/>
     <g id="text_6">
      <!-- 6 -->
      <g style="fill: #262626" transform="translate(329.668352 538.008125) scale(0.16 -0.16)">
       <defs>
        <path id="ArialMT-36" d="M 3184 3459 
L 2625 3416 
Q 2550 3747 2413 3897 
Q 2184 4138 1850 4138 
Q 1581 4138 1378 3988 
Q 1113 3794 959 3422 
Q 806 3050 800 2363 
Q 1003 2672 1297 2822 
Q 1591 2972 1913 2972 
Q 2475 2972 2870 2558 
Q 3266 2144 3266 1488 
Q 3266 1056 3080 686 
Q 2894 316 2569 119 
Q 2244 -78 1831 -78 
Q 1128 -78 684 439 
Q 241 956 241 2144 
Q 241 3472 731 4075 
Q 1159 4600 1884 4600 
Q 2425 4600 2770 4297 
Q 3116 3994 3184 3459 
z
M 888 1484 
Q 888 1194 1011 928 
Q 1134 663 1356 523 
Q 1578 384 1822 384 
Q 2178 384 2434 671 
Q 2691 959 2691 1453 
Q 2691 1928 2437 2201 
Q 2184 2475 1800 2475 
Q 1419 2475 1153 2201 
Q 888 1928 888 1484 
z
" transform="scale(0.015625)"/>
       </defs>
       <use xlink:href="#ArialMT-36"/>
      </g>
     </g>
    </g>
    <g id="xtick_7">
     <g id="line2d_13">
      <path d="M 382.088011 523.055625 
L 382.088011 41.515625 
" clip-path="url(#p959a5376f7)" style="fill: none; stroke: #cccccc; stroke-opacity: 0.3; stroke-width: 0.8; stroke-linecap: round"/>
     </g>
     <g id="line2d_14"/>
     <g id="text_7">
      <!-- 7 -->
      <g style="fill: #262626" transform="translate(377.639261 538.008125) scale(0.16 -0.16)">
       <defs>
        <path id="ArialMT-37" d="M 303 3981 
L 303 4522 
L 3269 4522 
L 3269 4084 
Q 2831 3619 2401 2847 
Q 1972 2075 1738 1259 
Q 1569 684 1522 0 
L 944 0 
Q 953 541 1156 1306 
Q 1359 2072 1739 2783 
Q 2119 3494 2547 3981 
L 303 3981 
z
" transform="scale(0.015625)"/>
       </defs>
       <use xlink:href="#ArialMT-37"/>
      </g>
     </g>
    </g>
    <g id="xtick_8">
     <g id="line2d_15">
      <path d="M 430.05892 523.055625 
L 430.05892 41.515625 
" clip-path="url(#p959a5376f7)" style="fill: none; stroke: #cccccc; stroke-opacity: 0.3; stroke-width: 0.8; stroke-linecap: round"/>
     </g>
     <g id="line2d_16"/>
     <g id="text_8">
      <!-- 8 -->
      <g style="fill: #262626" transform="translate(425.61017 538.008125) scale(0.16 -0.16)">
       <defs>
        <path id="ArialMT-38" d="M 1131 2484 
Q 781 2613 612 2850 
Q 444 3088 444 3419 
Q 444 3919 803 4259 
Q 1163 4600 1759 4600 
Q 2359 4600 2725 4251 
Q 3091 3903 3091 3403 
Q 3091 3084 2923 2848 
Q 2756 2613 2416 2484 
Q 2838 2347 3058 2040 
Q 3278 1734 3278 1309 
Q 3278 722 2862 322 
Q 2447 -78 1769 -78 
Q 1091 -78 675 323 
Q 259 725 259 1325 
Q 259 1772 486 2073 
Q 713 2375 1131 2484 
z
M 1019 3438 
Q 1019 3113 1228 2906 
Q 1438 2700 1772 2700 
Q 2097 2700 2305 2904 
Q 2513 3109 2513 3406 
Q 2513 3716 2298 3927 
Q 2084 4138 1766 4138 
Q 1444 4138 1231 3931 
Q 1019 3725 1019 3438 
z
M 838 1322 
Q 838 1081 952 856 
Q 1066 631 1291 507 
Q 1516 384 1775 384 
Q 2178 384 2440 643 
Q 2703 903 2703 1303 
Q 2703 1709 2433 1975 
Q 2163 2241 1756 2241 
Q 1359 2241 1098 1978 
Q 838 1716 838 1322 
z
" transform="scale(0.015625)"/>
       </defs>
       <use xlink:href="#ArialMT-38"/>
      </g>
     </g>
    </g>
    <g id="xtick_9">
     <g id="line2d_17">
      <path d="M 478.02983 523.055625 
L 478.02983 41.515625 
" clip-path="url(#p959a5376f7)" style="fill: none; stroke: #cccccc; stroke-opacity: 0.3; stroke-width: 0.8; stroke-linecap: round"/>
     </g>
     <g id="line2d_18"/>
     <g id="text_9">
      <!-- 9 -->
      <g style="fill: #262626" transform="translate(473.58108 538.008125) scale(0.16 -0.16)">
       <defs>
        <path id="ArialMT-39" d="M 350 1059 
L 891 1109 
Q 959 728 1153 556 
Q 1347 384 1650 384 
Q 1909 384 2104 503 
Q 2300 622 2425 820 
Q 2550 1019 2634 1356 
Q 2719 1694 2719 2044 
Q 2719 2081 2716 2156 
Q 2547 1888 2255 1720 
Q 1963 1553 1622 1553 
Q 1053 1553 659 1965 
Q 266 2378 266 3053 
Q 266 3750 677 4175 
Q 1088 4600 1706 4600 
Q 2153 4600 2523 4359 
Q 2894 4119 3086 3673 
Q 3278 3228 3278 2384 
Q 3278 1506 3087 986 
Q 2897 466 2520 194 
Q 2144 -78 1638 -78 
Q 1100 -78 759 220 
Q 419 519 350 1059 
z
M 2653 3081 
Q 2653 3566 2395 3850 
Q 2138 4134 1775 4134 
Q 1400 4134 1122 3828 
Q 844 3522 844 3034 
Q 844 2597 1108 2323 
Q 1372 2050 1759 2050 
Q 2150 2050 2401 2323 
Q 2653 2597 2653 3081 
z
" transform="scale(0.015625)"/>
       </defs>
       <use xlink:href="#ArialMT-39"/>
      </g>
     </g>
    </g>
    <g id="xtick_10">
     <g id="line2d_19">
      <path d="M 526.000739 523.055625 
L 526.000739 41.515625 
" clip-path="url(#p959a5376f7)" style="fill: none; stroke: #cccccc; stroke-opacity: 0.3; stroke-width: 0.8; stroke-linecap: round"/>
     </g>
     <g id="line2d_20"/>
     <g id="text_10">
      <!-- 10 -->
      <g style="fill: #262626" transform="translate(517.103239 538.008125) scale(0.16 -0.16)">
       <defs>
        <path id="ArialMT-30" d="M 266 2259 
Q 266 3072 433 3567 
Q 600 4063 929 4331 
Q 1259 4600 1759 4600 
Q 2128 4600 2406 4451 
Q 2684 4303 2865 4023 
Q 3047 3744 3150 3342 
Q 3253 2941 3253 2259 
Q 3253 1453 3087 958 
Q 2922 463 2592 192 
Q 2263 -78 1759 -78 
Q 1097 -78 719 397 
Q 266 969 266 2259 
z
M 844 2259 
Q 844 1131 1108 757 
Q 1372 384 1759 384 
Q 2147 384 2411 759 
Q 2675 1134 2675 2259 
Q 2675 3391 2411 3762 
Q 2147 4134 1753 4134 
Q 1366 4134 1134 3806 
Q 844 3388 844 2259 
z
" transform="scale(0.015625)"/>
       </defs>
       <use xlink:href="#ArialMT-31"/>
       <use xlink:href="#ArialMT-30" transform="translate(55.615234 0)"/>
      </g>
     </g>
    </g>
    <g id="xtick_11">
     <g id="line2d_21">
      <path d="M 573.971648 523.055625 
L 573.971648 41.515625 
" clip-path="url(#p959a5376f7)" style="fill: none; stroke: #cccccc; stroke-opacity: 0.3; stroke-width: 0.8; stroke-linecap: round"/>
     </g>
     <g id="line2d_22"/>
     <g id="text_11">
      <!-- 11 -->
      <g style="fill: #262626" transform="translate(565.664148 538.008125) scale(0.16 -0.16)">
       <use xlink:href="#ArialMT-31"/>
       <use xlink:href="#ArialMT-31" transform="translate(48.240234 0)"/>
      </g>
     </g>
    </g>
    <g id="xtick_12">
     <g id="line2d_23">
      <path d="M 621.942557 523.055625 
L 621.942557 41.515625 
" clip-path="url(#p959a5376f7)" style="fill: none; stroke: #cccccc; stroke-opacity: 0.3; stroke-width: 0.8; stroke-linecap: round"/>
     </g>
     <g id="line2d_24"/>
     <g id="text_12">
      <!-- 12 -->
      <g style="fill: #262626" transform="translate(613.045057 538.008125) scale(0.16 -0.16)">
       <use xlink:href="#ArialMT-31"/>
       <use xlink:href="#ArialMT-32" transform="translate(55.615234 0)"/>
      </g>
     </g>
    </g>
    <g id="xtick_13">
     <g id="line2d_25">
      <path d="M 669.913466 523.055625 
L 669.913466 41.515625 
" clip-path="url(#p959a5376f7)" style="fill: none; stroke: #cccccc; stroke-opacity: 0.3; stroke-width: 0.8; stroke-linecap: round"/>
     </g>
     <g id="line2d_26"/>
     <g id="text_13">
      <!-- 13 -->
      <g style="fill: #262626" transform="translate(661.015966 538.008125) scale(0.16 -0.16)">
       <use xlink:href="#ArialMT-31"/>
       <use xlink:href="#ArialMT-33" transform="translate(55.615234 0)"/>
      </g>
     </g>
    </g>
    <g id="xtick_14">
     <g id="line2d_27">
      <path d="M 717.884375 523.055625 
L 717.884375 41.515625 
" clip-path="url(#p959a5376f7)" style="fill: none; stroke: #cccccc; stroke-opacity: 0.3; stroke-width: 0.8; stroke-linecap: round"/>
     </g>
     <g id="line2d_28"/>
     <g id="text_14">
      <!-- 14 -->
      <g style="fill: #262626" transform="translate(708.986875 538.008125) scale(0.16 -0.16)">
       <use xlink:href="#ArialMT-31"/>
       <use xlink:href="#ArialMT-34" transform="translate(55.615234 0)"/>
      </g>
     </g>
    </g>
    <g id="xtick_15">
     <g id="line2d_29">
      <path d="M 765.855284 523.055625 
L 765.855284 41.515625 
" clip-path="url(#p959a5376f7)" style="fill: none; stroke: #cccccc; stroke-opacity: 0.3; stroke-width: 0.8; stroke-linecap: round"/>
     </g>
     <g id="line2d_30"/>
     <g id="text_15">
      <!-- 15 -->
      <g style="fill: #262626" transform="translate(756.957784 538.008125) scale(0.16 -0.16)">
       <use xlink:href="#ArialMT-31"/>
       <use xlink:href="#ArialMT-35" transform="translate(55.615234 0)"/>
      </g>
     </g>
    </g>
    <g id="xtick_16">
     <g id="line2d_31">
      <path d="M 813.826193 523.055625 
L 813.826193 41.515625 
" clip-path="url(#p959a5376f7)" style="fill: none; stroke: #cccccc; stroke-opacity: 0.3; stroke-width: 0.8; stroke-linecap: round"/>
     </g>
     <g id="line2d_32"/>
     <g id="text_16">
      <!-- 16 -->
      <g style="fill: #262626" transform="translate(804.928693 538.008125) scale(0.16 -0.16)">
       <use xlink:href="#ArialMT-31"/>
       <use xlink:href="#ArialMT-36" transform="translate(55.615234 0)"/>
      </g>
     </g>
    </g>
    <g id="xtick_17">
     <g id="line2d_33"/>
    </g>
    <g id="xtick_18">
     <g id="line2d_34"/>
    </g>
    <g id="xtick_19">
     <g id="line2d_35"/>
    </g>
    <g id="xtick_20">
     <g id="line2d_36"/>
    </g>
    <g id="xtick_21">
     <g id="line2d_37"/>
    </g>
    <g id="xtick_22">
     <g id="line2d_38"/>
    </g>
    <g id="xtick_23">
     <g id="line2d_39"/>
    </g>
    <g id="xtick_24">
     <g id="line2d_40"/>
    </g>
    <g id="xtick_25">
     <g id="line2d_41"/>
    </g>
    <g id="xtick_26">
     <g id="line2d_42"/>
    </g>
    <g id="xtick_27">
     <g id="line2d_43"/>
    </g>
    <g id="xtick_28">
     <g id="line2d_44"/>
    </g>
    <g id="xtick_29">
     <g id="line2d_45"/>
    </g>
    <g id="xtick_30">
     <g id="line2d_46"/>
    </g>
    <g id="xtick_31">
     <g id="line2d_47"/>
    </g>
    <g id="xtick_32">
     <g id="line2d_48"/>
    </g>
    <g id="xtick_33">
     <g id="line2d_49"/>
    </g>
    <g id="xtick_34">
     <g id="line2d_50"/>
    </g>
    <g id="xtick_35">
     <g id="line2d_51"/>
    </g>
    <g id="xtick_36">
     <g id="line2d_52"/>
    </g>
    <g id="xtick_37">
     <g id="line2d_53"/>
    </g>
    <g id="xtick_38">
     <g id="line2d_54"/>
    </g>
    <g id="xtick_39">
     <g id="line2d_55"/>
    </g>
    <g id="xtick_40">
     <g id="line2d_56"/>
    </g>
    <g id="xtick_41">
     <g id="line2d_57"/>
    </g>
    <g id="xtick_42">
     <g id="line2d_58"/>
    </g>
    <g id="xtick_43">
     <g id="line2d_59"/>
    </g>
    <g id="xtick_44">
     <g id="line2d_60"/>
    </g>
    <g id="xtick_45">
     <g id="line2d_61"/>
    </g>
    <g id="xtick_46">
     <g id="line2d_62"/>
    </g>
    <g id="xtick_47">
     <g id="line2d_63"/>
    </g>
    <g id="xtick_48">
     <g id="line2d_64"/>
    </g>
    <g id="xtick_49">
     <g id="line2d_65"/>
    </g>
    <g id="xtick_50">
     <g id="line2d_66"/>
    </g>
    <g id="xtick_51">
     <g id="line2d_67"/>
    </g>
    <g id="xtick_52">
     <g id="line2d_68"/>
    </g>
    <g id="xtick_53">
     <g id="line2d_69"/>
    </g>
    <g id="xtick_54">
     <g id="line2d_70"/>
    </g>
    <g id="xtick_55">
     <g id="line2d_71"/>
    </g>
    <g id="xtick_56">
     <g id="line2d_72"/>
    </g>
    <g id="xtick_57">
     <g id="line2d_73"/>
    </g>
    <g id="xtick_58">
     <g id="line2d_74"/>
    </g>
    <g id="xtick_59">
     <g id="line2d_75"/>
    </g>
    <g id="xtick_60">
     <g id="line2d_76"/>
    </g>
    <g id="xtick_61">
     <g id="line2d_77"/>
    </g>
    <g id="xtick_62">
     <g id="line2d_78"/>
    </g>
    <g id="xtick_63">
     <g id="line2d_79"/>
    </g>
    <g id="xtick_64">
     <g id="line2d_80"/>
    </g>
    <g id="xtick_65">
     <g id="line2d_81"/>
    </g>
    <g id="xtick_66">
     <g id="line2d_82"/>
    </g>
    <g id="xtick_67">
     <g id="line2d_83"/>
    </g>
    <g id="xtick_68">
     <g id="line2d_84"/>
    </g>
    <g id="xtick_69">
     <g id="line2d_85"/>
    </g>
    <g id="xtick_70">
     <g id="line2d_86"/>
    </g>
    <g id="xtick_71">
     <g id="line2d_87"/>
    </g>
    <g id="xtick_72">
     <g id="line2d_88"/>
    </g>
    <g id="xtick_73">
     <g id="line2d_89"/>
    </g>
    <g id="xtick_74">
     <g id="line2d_90"/>
    </g>
    <g id="xtick_75">
     <g id="line2d_91"/>
    </g>
    <g id="xtick_76">
     <g id="line2d_92"/>
    </g>
    <g id="xtick_77">
     <g id="line2d_93"/>
    </g>
    <g id="xtick_78">
     <g id="line2d_94"/>
    </g>
    <g id="xtick_79">
     <g id="line2d_95"/>
    </g>
    <g id="xtick_80">
     <g id="line2d_96"/>
    </g>
    <g id="xtick_81">
     <g id="line2d_97"/>
    </g>
    <g id="xtick_82">
     <g id="line2d_98"/>
    </g>
    <g id="text_17">
     <!-- Test Case -->
     <g style="fill: #262626" transform="translate(412.190156 558.072187) scale(0.18 -0.18)">
      <defs>
       <path id="Arial-BoldMT-54" d="M 1497 0 
L 1497 3806 
L 138 3806 
L 138 4581 
L 3778 4581 
L 3778 3806 
L 2422 3806 
L 2422 0 
L 1497 0 
z
" transform="scale(0.015625)"/>
       <path id="Arial-BoldMT-65" d="M 2381 1056 
L 3256 909 
Q 3088 428 2723 176 
Q 2359 -75 1813 -75 
Q 947 -75 531 491 
Q 203 944 203 1634 
Q 203 2459 634 2926 
Q 1066 3394 1725 3394 
Q 2466 3394 2894 2905 
Q 3322 2416 3303 1406 
L 1103 1406 
Q 1113 1016 1316 798 
Q 1519 581 1822 581 
Q 2028 581 2168 693 
Q 2309 806 2381 1056 
z
M 2431 1944 
Q 2422 2325 2234 2523 
Q 2047 2722 1778 2722 
Q 1491 2722 1303 2513 
Q 1116 2303 1119 1944 
L 2431 1944 
z
" transform="scale(0.015625)"/>
       <path id="Arial-BoldMT-73" d="M 150 947 
L 1031 1081 
Q 1088 825 1259 692 
Q 1431 559 1741 559 
Q 2081 559 2253 684 
Q 2369 772 2369 919 
Q 2369 1019 2306 1084 
Q 2241 1147 2013 1200 
Q 950 1434 666 1628 
Q 272 1897 272 2375 
Q 272 2806 612 3100 
Q 953 3394 1669 3394 
Q 2350 3394 2681 3172 
Q 3013 2950 3138 2516 
L 2309 2363 
Q 2256 2556 2107 2659 
Q 1959 2763 1684 2763 
Q 1338 2763 1188 2666 
Q 1088 2597 1088 2488 
Q 1088 2394 1175 2328 
Q 1294 2241 1995 2081 
Q 2697 1922 2975 1691 
Q 3250 1456 3250 1038 
Q 3250 581 2869 253 
Q 2488 -75 1741 -75 
Q 1063 -75 667 200 
Q 272 475 150 947 
z
" transform="scale(0.015625)"/>
       <path id="Arial-BoldMT-74" d="M 1981 3319 
L 1981 2619 
L 1381 2619 
L 1381 1281 
Q 1381 875 1398 808 
Q 1416 741 1477 697 
Q 1538 653 1625 653 
Q 1747 653 1978 738 
L 2053 56 
Q 1747 -75 1359 -75 
Q 1122 -75 931 4 
Q 741 84 652 211 
Q 563 338 528 553 
Q 500 706 500 1172 
L 500 2619 
L 97 2619 
L 97 3319 
L 500 3319 
L 500 3978 
L 1381 4491 
L 1381 3319 
L 1981 3319 
z
" transform="scale(0.015625)"/>
       <path id="Arial-BoldMT-20" transform="scale(0.015625)"/>
       <path id="Arial-BoldMT-43" d="M 3397 1684 
L 4294 1400 
Q 4088 650 3608 286 
Q 3128 -78 2391 -78 
Q 1478 -78 890 545 
Q 303 1169 303 2250 
Q 303 3394 893 4026 
Q 1484 4659 2447 4659 
Q 3288 4659 3813 4163 
Q 4125 3869 4281 3319 
L 3366 3100 
Q 3284 3456 3026 3662 
Q 2769 3869 2400 3869 
Q 1891 3869 1573 3503 
Q 1256 3138 1256 2319 
Q 1256 1450 1568 1081 
Q 1881 713 2381 713 
Q 2750 713 3015 947 
Q 3281 1181 3397 1684 
z
" transform="scale(0.015625)"/>
       <path id="Arial-BoldMT-61" d="M 1116 2306 
L 319 2450 
Q 453 2931 781 3162 
Q 1109 3394 1756 3394 
Q 2344 3394 2631 3255 
Q 2919 3116 3036 2902 
Q 3153 2688 3153 2116 
L 3144 1091 
Q 3144 653 3186 445 
Q 3228 238 3344 0 
L 2475 0 
Q 2441 88 2391 259 
Q 2369 338 2359 363 
Q 2134 144 1878 34 
Q 1622 -75 1331 -75 
Q 819 -75 523 203 
Q 228 481 228 906 
Q 228 1188 362 1408 
Q 497 1628 739 1745 
Q 981 1863 1438 1950 
Q 2053 2066 2291 2166 
L 2291 2253 
Q 2291 2506 2166 2614 
Q 2041 2722 1694 2722 
Q 1459 2722 1328 2630 
Q 1197 2538 1116 2306 
z
M 2291 1594 
Q 2122 1538 1756 1459 
Q 1391 1381 1278 1306 
Q 1106 1184 1106 997 
Q 1106 813 1243 678 
Q 1381 544 1594 544 
Q 1831 544 2047 700 
Q 2206 819 2256 991 
Q 2291 1103 2291 1419 
L 2291 1594 
z
" transform="scale(0.015625)"/>
      </defs>
      <use xlink:href="#Arial-BoldMT-54"/>
      <use xlink:href="#Arial-BoldMT-65" transform="translate(53.708984 0)"/>
      <use xlink:href="#Arial-BoldMT-73" transform="translate(109.324219 0)"/>
      <use xlink:href="#Arial-BoldMT-74" transform="translate(164.939453 0)"/>
      <use xlink:href="#Arial-BoldMT-20" transform="translate(198.240234 0)"/>
      <use xlink:href="#Arial-BoldMT-43" transform="translate(226.023438 0)"/>
      <use xlink:href="#Arial-BoldMT-61" transform="translate(298.240234 0)"/>
      <use xlink:href="#Arial-BoldMT-73" transform="translate(353.855469 0)"/>
      <use xlink:href="#Arial-BoldMT-65" transform="translate(409.470703 0)"/>
     </g>
    </g>
   </g>
   <g id="matplotlib.axis_2">
    <g id="ytick_1">
     <g id="line2d_99">
      <path d="M 58.284375 523.055625 
L 849.804375 523.055625 
" clip-path="url(#p959a5376f7)" style="fill: none; stroke: #cccccc; stroke-opacity: 0.3; stroke-width: 0.8; stroke-linecap: round"/>
     </g>
     <g id="line2d_100"/>
     <g id="text_18">
      <!-- 0 -->
      <g style="fill: #262626" transform="translate(45.886875 528.781875) scale(0.16 -0.16)">
       <use xlink:href="#ArialMT-30"/>
      </g>
     </g>
    </g>
    <g id="ytick_2">
     <g id="line2d_101">
      <path d="M 58.284375 426.747625 
L 849.804375 426.747625 
" clip-path="url(#p959a5376f7)" style="fill: none; stroke: #cccccc; stroke-opacity: 0.3; stroke-width: 0.8; stroke-linecap: round"/>
     </g>
     <g id="line2d_102"/>
     <g id="text_19">
      <!-- 20 -->
      <g style="fill: #262626" transform="translate(36.989375 432.473875) scale(0.16 -0.16)">
       <use xlink:href="#ArialMT-32"/>
       <use xlink:href="#ArialMT-30" transform="translate(55.615234 0)"/>
      </g>
     </g>
    </g>
    <g id="ytick_3">
     <g id="line2d_103">
      <path d="M 58.284375 330.439625 
L 849.804375 330.439625 
" clip-path="url(#p959a5376f7)" style="fill: none; stroke: #cccccc; stroke-opacity: 0.3; stroke-width: 0.8; stroke-linecap: round"/>
     </g>
     <g id="line2d_104"/>
     <g id="text_20">
      <!-- 40 -->
      <g style="fill: #262626" transform="translate(36.989375 336.165875) scale(0.16 -0.16)">
       <use xlink:href="#ArialMT-34"/>
       <use xlink:href="#ArialMT-30" transform="translate(55.615234 0)"/>
      </g>
     </g>
    </g>
    <g id="ytick_4">
     <g id="line2d_105">
      <path d="M 58.284375 234.131625 
L 849.804375 234.131625 
" clip-path="url(#p959a5376f7)" style="fill: none; stroke: #cccccc; stroke-opacity: 0.3; stroke-width: 0.8; stroke-linecap: round"/>
     </g>
     <g id="line2d_106"/>
     <g id="text_21">
      <!-- 60 -->
      <g style="fill: #262626" transform="translate(36.989375 239.857875) scale(0.16 -0.16)">
       <use xlink:href="#ArialMT-36"/>
       <use xlink:href="#ArialMT-30" transform="translate(55.615234 0)"/>
      </g>
     </g>
    </g>
    <g id="ytick_5">
     <g id="line2d_107">
      <path d="M 58.284375 137.823625 
L 849.804375 137.823625 
" clip-path="url(#p959a5376f7)" style="fill: none; stroke: #cccccc; stroke-opacity: 0.3; stroke-width: 0.8; stroke-linecap: round"/>
     </g>
     <g id="line2d_108"/>
     <g id="text_22">
      <!-- 80 -->
      <g style="fill: #262626" transform="translate(36.989375 143.549875) scale(0.16 -0.16)">
       <use xlink:href="#ArialMT-38"/>
       <use xlink:href="#ArialMT-30" transform="translate(55.615234 0)"/>
      </g>
     </g>
    </g>
    <g id="ytick_6">
     <g id="line2d_109">
      <path d="M 58.284375 41.515625 
L 849.804375 41.515625 
" clip-path="url(#p959a5376f7)" style="fill: none; stroke: #cccccc; stroke-opacity: 0.3; stroke-width: 0.8; stroke-linecap: round"/>
     </g>
     <g id="line2d_110"/>
     <g id="text_23">
      <!-- 100 -->
      <g style="fill: #262626" transform="translate(28.091875 47.241875) scale(0.16 -0.16)">
       <use xlink:href="#ArialMT-31"/>
       <use xlink:href="#ArialMT-30" transform="translate(55.615234 0)"/>
       <use xlink:href="#ArialMT-30" transform="translate(111.230469 0)"/>
      </g>
     </g>
    </g>
    <g id="ytick_7">
     <g id="line2d_111"/>
    </g>
    <g id="ytick_8">
     <g id="line2d_112"/>
    </g>
    <g id="ytick_9">
     <g id="line2d_113"/>
    </g>
    <g id="ytick_10">
     <g id="line2d_114"/>
    </g>
    <g id="ytick_11">
     <g id="line2d_115"/>
    </g>
    <g id="ytick_12">
     <g id="line2d_116"/>
    </g>
    <g id="ytick_13">
     <g id="line2d_117"/>
    </g>
    <g id="ytick_14">
     <g id="line2d_118"/>
    </g>
    <g id="ytick_15">
     <g id="line2d_119"/>
    </g>
    <g id="ytick_16">
     <g id="line2d_120"/>
    </g>
    <g id="ytick_17">
     <g id="line2d_121"/>
    </g>
    <g id="ytick_18">
     <g id="line2d_122"/>
    </g>
    <g id="ytick_19">
     <g id="line2d_123"/>
    </g>
    <g id="ytick_20">
     <g id="line2d_124"/>
    </g>
    <g id="ytick_21">
     <g id="line2d_125"/>
    </g>
    <g id="text_24">
     <!-- Time Fraction (%) -->
     <g style="fill: #262626" transform="translate(20.303438 357.631094) rotate(-90) scale(0.18 -0.18)">
      <defs>
       <path id="Arial-BoldMT-69" d="M 459 3769 
L 459 4581 
L 1338 4581 
L 1338 3769 
L 459 3769 
z
M 459 0 
L 459 3319 
L 1338 3319 
L 1338 0 
L 459 0 
z
" transform="scale(0.015625)"/>
       <path id="Arial-BoldMT-6d" d="M 394 3319 
L 1203 3319 
L 1203 2866 
Q 1638 3394 2238 3394 
Q 2556 3394 2790 3262 
Q 3025 3131 3175 2866 
Q 3394 3131 3647 3262 
Q 3900 3394 4188 3394 
Q 4553 3394 4806 3245 
Q 5059 3097 5184 2809 
Q 5275 2597 5275 2122 
L 5275 0 
L 4397 0 
L 4397 1897 
Q 4397 2391 4306 2534 
Q 4184 2722 3931 2722 
Q 3747 2722 3584 2609 
Q 3422 2497 3350 2280 
Q 3278 2063 3278 1594 
L 3278 0 
L 2400 0 
L 2400 1819 
Q 2400 2303 2353 2443 
Q 2306 2584 2207 2653 
Q 2109 2722 1941 2722 
Q 1738 2722 1575 2612 
Q 1413 2503 1342 2297 
Q 1272 2091 1272 1613 
L 1272 0 
L 394 0 
L 394 3319 
z
" transform="scale(0.015625)"/>
       <path id="Arial-BoldMT-46" d="M 472 0 
L 472 4581 
L 3613 4581 
L 3613 3806 
L 1397 3806 
L 1397 2722 
L 3309 2722 
L 3309 1947 
L 1397 1947 
L 1397 0 
L 472 0 
z
" transform="scale(0.015625)"/>
       <path id="Arial-BoldMT-72" d="M 1300 0 
L 422 0 
L 422 3319 
L 1238 3319 
L 1238 2847 
Q 1447 3181 1614 3287 
Q 1781 3394 1994 3394 
Q 2294 3394 2572 3228 
L 2300 2463 
Q 2078 2606 1888 2606 
Q 1703 2606 1575 2504 
Q 1447 2403 1373 2137 
Q 1300 1872 1300 1025 
L 1300 0 
z
" transform="scale(0.015625)"/>
       <path id="Arial-BoldMT-63" d="M 3353 2338 
L 2488 2181 
Q 2444 2441 2289 2572 
Q 2134 2703 1888 2703 
Q 1559 2703 1364 2476 
Q 1169 2250 1169 1719 
Q 1169 1128 1367 884 
Q 1566 641 1900 641 
Q 2150 641 2309 783 
Q 2469 925 2534 1272 
L 3397 1125 
Q 3263 531 2881 228 
Q 2500 -75 1859 -75 
Q 1131 -75 698 384 
Q 266 844 266 1656 
Q 266 2478 700 2936 
Q 1134 3394 1875 3394 
Q 2481 3394 2839 3133 
Q 3197 2872 3353 2338 
z
" transform="scale(0.015625)"/>
       <path id="Arial-BoldMT-6f" d="M 256 1706 
Q 256 2144 472 2553 
Q 688 2963 1083 3178 
Q 1478 3394 1966 3394 
Q 2719 3394 3200 2905 
Q 3681 2416 3681 1669 
Q 3681 916 3195 420 
Q 2709 -75 1972 -75 
Q 1516 -75 1102 131 
Q 688 338 472 736 
Q 256 1134 256 1706 
z
M 1156 1659 
Q 1156 1166 1390 903 
Q 1625 641 1969 641 
Q 2313 641 2545 903 
Q 2778 1166 2778 1666 
Q 2778 2153 2545 2415 
Q 2313 2678 1969 2678 
Q 1625 2678 1390 2415 
Q 1156 2153 1156 1659 
z
" transform="scale(0.015625)"/>
       <path id="Arial-BoldMT-6e" d="M 3478 0 
L 2600 0 
L 2600 1694 
Q 2600 2231 2544 2389 
Q 2488 2547 2361 2634 
Q 2234 2722 2056 2722 
Q 1828 2722 1647 2597 
Q 1466 2472 1398 2265 
Q 1331 2059 1331 1503 
L 1331 0 
L 453 0 
L 453 3319 
L 1269 3319 
L 1269 2831 
Q 1703 3394 2363 3394 
Q 2653 3394 2893 3289 
Q 3134 3184 3257 3021 
Q 3381 2859 3429 2653 
Q 3478 2447 3478 2063 
L 3478 0 
z
" transform="scale(0.015625)"/>
       <path id="Arial-BoldMT-28" d="M 1916 -1347 
L 1313 -1347 
Q 834 -625 584 153 
Q 334 931 334 1659 
Q 334 2563 644 3369 
Q 913 4069 1325 4659 
L 1925 4659 
Q 1497 3713 1336 3048 
Q 1175 2384 1175 1641 
Q 1175 1128 1270 590 
Q 1366 53 1531 -431 
Q 1641 -750 1916 -1347 
z
" transform="scale(0.015625)"/>
       <path id="Arial-BoldMT-25" d="M 278 3450 
Q 278 4066 548 4362 
Q 819 4659 1281 4659 
Q 1759 4659 2029 4364 
Q 2300 4069 2300 3450 
Q 2300 2834 2029 2537 
Q 1759 2241 1297 2241 
Q 819 2241 548 2536 
Q 278 2831 278 3450 
z
M 963 3456 
Q 963 3009 1066 2856 
Q 1144 2744 1281 2744 
Q 1422 2744 1500 2856 
Q 1600 3009 1600 3456 
Q 1600 3903 1500 4053 
Q 1422 4169 1281 4169 
Q 1144 4169 1066 4056 
Q 963 3903 963 3456 
z
M 1950 -175 
L 1300 -175 
L 3741 4659 
L 4372 4659 
L 1950 -175 
z
M 3369 1028 
Q 3369 1644 3639 1941 
Q 3909 2238 4378 2238 
Q 4850 2238 5120 1941 
Q 5391 1644 5391 1028 
Q 5391 409 5120 112 
Q 4850 -184 4388 -184 
Q 3909 -184 3639 112 
Q 3369 409 3369 1028 
z
M 4053 1031 
Q 4053 584 4156 434 
Q 4234 319 4372 319 
Q 4513 319 4588 431 
Q 4691 584 4691 1031 
Q 4691 1478 4591 1631 
Q 4513 1744 4372 1744 
Q 4231 1744 4156 1631 
Q 4053 1478 4053 1031 
z
" transform="scale(0.015625)"/>
       <path id="Arial-BoldMT-29" d="M 216 -1347 
Q 475 -791 581 -494 
Q 688 -197 778 190 
Q 869 578 912 926 
Q 956 1275 956 1641 
Q 956 2384 797 3048 
Q 638 3713 209 4659 
L 806 4659 
Q 1278 3988 1539 3234 
Q 1800 2481 1800 1706 
Q 1800 1053 1594 306 
Q 1359 -531 822 -1347 
L 216 -1347 
z
" transform="scale(0.015625)"/>
      </defs>
      <use xlink:href="#Arial-BoldMT-54"/>
      <use xlink:href="#Arial-BoldMT-69" transform="translate(59.333984 0)"/>
      <use xlink:href="#Arial-BoldMT-6d" transform="translate(87.117188 0)"/>
      <use xlink:href="#Arial-BoldMT-65" transform="translate(176.033203 0)"/>
      <use xlink:href="#Arial-BoldMT-20" transform="translate(231.648438 0)"/>
      <use xlink:href="#Arial-BoldMT-46" transform="translate(259.431641 0)"/>
      <use xlink:href="#Arial-BoldMT-72" transform="translate(320.515625 0)"/>
      <use xlink:href="#Arial-BoldMT-61" transform="translate(359.431641 0)"/>
      <use xlink:href="#Arial-BoldMT-63" transform="translate(415.046875 0)"/>
      <use xlink:href="#Arial-BoldMT-74" transform="translate(470.662109 0)"/>
      <use xlink:href="#Arial-BoldMT-69" transform="translate(503.962891 0)"/>
      <use xlink:href="#Arial-BoldMT-6f" transform="translate(531.746094 0)"/>
      <use xlink:href="#Arial-BoldMT-6e" transform="translate(592.830078 0)"/>
      <use xlink:href="#Arial-BoldMT-20" transform="translate(653.914062 0)"/>
      <use xlink:href="#Arial-BoldMT-28" transform="translate(681.697266 0)"/>
      <use xlink:href="#Arial-BoldMT-25" transform="translate(714.998047 0)"/>
      <use xlink:href="#Arial-BoldMT-29" transform="translate(803.914062 0)"/>
     </g>
    </g>
   </g>
   <g id="line2d_126">
    <path d="M 94.262557 149.862125 
L 142.233466 155.564572 
L 190.204375 161.900625 
L 238.175284 158.646976 
L 286.146193 388.224425 
L 334.117102 387.546881 
L 382.088011 391.290948 
L 430.05892 387.844886 
L 478.02983 457.259619 
L 526.000739 457.228463 
L 573.971648 455.712437 
L 621.942557 457.39108 
L 669.913466 511.155138 
L 717.884375 511.591174 
L 765.855284 511.429968 
L 813.826193 511.389739 
" clip-path="url(#p959a5376f7)" style="fill: none; stroke: #0000ff; stroke-opacity: 0.8; stroke-width: 3; stroke-linecap: round"/>
    <defs>
     <path id="m3223e1ba84" d="M 0 4 
C 1.060812 4 2.078319 3.578535 2.828427 2.828427 
C 3.578535 2.078319 4 1.060812 4 0 
C 4 -1.060812 3.578535 -2.078319 2.828427 -2.828427 
C 2.078319 -3.578535 1.060812 -4 0 -4 
C -1.060812 -4 -2.078319 -3.578535 -2.828427 -2.828427 
C -3.578535 -2.078319 -4 -1.060812 -4 0 
C -4 1.060812 -3.578535 2.078319 -2.828427 2.828427 
C -2.078319 3.578535 -1.060812 4 0 4 
z
" style="stroke: #0000ff; stroke-opacity: 0.8"/>
    </defs>
    <g clip-path="url(#p959a5376f7)">
     <use xlink:href="#m3223e1ba84" x="94.262557" y="149.862125" style="fill: #0000ff; fill-opacity: 0.8; stroke: #0000ff; stroke-opacity: 0.8"/>
     <use xlink:href="#m3223e1ba84" x="142.233466" y="155.564572" style="fill: #0000ff; fill-opacity: 0.8; stroke: #0000ff; stroke-opacity: 0.8"/>
     <use xlink:href="#m3223e1ba84" x="190.204375" y="161.900625" style="fill: #0000ff; fill-opacity: 0.8; stroke: #0000ff; stroke-opacity: 0.8"/>
     <use xlink:href="#m3223e1ba84" x="238.175284" y="158.646976" style="fill: #0000ff; fill-opacity: 0.8; stroke: #0000ff; stroke-opacity: 0.8"/>
     <use xlink:href="#m3223e1ba84" x="286.146193" y="388.224425" style="fill: #0000ff; fill-opacity: 0.8; stroke: #0000ff; stroke-opacity: 0.8"/>
     <use xlink:href="#m3223e1ba84" x="334.117102" y="387.546881" style="fill: #0000ff; fill-opacity: 0.8; stroke: #0000ff; stroke-opacity: 0.8"/>
     <use xlink:href="#m3223e1ba84" x="382.088011" y="391.290948" style="fill: #0000ff; fill-opacity: 0.8; stroke: #0000ff; stroke-opacity: 0.8"/>
     <use xlink:href="#m3223e1ba84" x="430.05892" y="387.844886" style="fill: #0000ff; fill-opacity: 0.8; stroke: #0000ff; stroke-opacity: 0.8"/>
     <use xlink:href="#m3223e1ba84" x="478.02983" y="457.259619" style="fill: #0000ff; fill-opacity: 0.8; stroke: #0000ff; stroke-opacity: 0.8"/>
     <use xlink:href="#m3223e1ba84" x="526.000739" y="457.228463" style="fill: #0000ff; fill-opacity: 0.8; stroke: #0000ff; stroke-opacity: 0.8"/>
     <use xlink:href="#m3223e1ba84" x="573.971648" y="455.712437" style="fill: #0000ff; fill-opacity: 0.8; stroke: #0000ff; stroke-opacity: 0.8"/>
     <use xlink:href="#m3223e1ba84" x="621.942557" y="457.39108" style="fill: #0000ff; fill-opacity: 0.8; stroke: #0000ff; stroke-opacity: 0.8"/>
     <use xlink:href="#m3223e1ba84" x="669.913466" y="511.155138" style="fill: #0000ff; fill-opacity: 0.8; stroke: #0000ff; stroke-opacity: 0.8"/>
     <use xlink:href="#m3223e1ba84" x="717.884375" y="511.591174" style="fill: #0000ff; fill-opacity: 0.8; stroke: #0000ff; stroke-opacity: 0.8"/>
     <use xlink:href="#m3223e1ba84" x="765.855284" y="511.429968" style="fill: #0000ff; fill-opacity: 0.8; stroke: #0000ff; stroke-opacity: 0.8"/>
     <use xlink:href="#m3223e1ba84" x="813.826193" y="511.389739" style="fill: #0000ff; fill-opacity: 0.8; stroke: #0000ff; stroke-opacity: 0.8"/>
    </g>
   </g>
   <g id="line2d_127">
    <path d="M 94.262557 414.709125 
L 142.233466 409.006678 
L 190.204375 402.670625 
L 238.175284 405.924274 
L 286.146193 176.346825 
L 334.117102 177.024369 
L 382.088011 173.280302 
L 430.05892 176.726364 
L 478.02983 107.311631 
L 526.000739 107.342787 
L 573.971648 108.858813 
L 621.942557 107.18017 
L 669.913466 53.416112 
L 717.884375 52.980076 
L 765.855284 53.141282 
L 813.826193 53.181511 
" clip-path="url(#p959a5376f7)" style="fill: none; stroke: #ff0000; stroke-opacity: 0.8; stroke-width: 3; stroke-linecap: round"/>
    <defs>
     <path id="mbce930bcd5" d="M -4 4 
L 4 4 
L 4 -4 
L -4 -4 
z
" style="stroke: #ff0000; stroke-opacity: 0.8; stroke-linejoin: miter"/>
    </defs>
    <g clip-path="url(#p959a5376f7)">
     <use xlink:href="#mbce930bcd5" x="94.262557" y="414.709125" style="fill: #ff0000; fill-opacity: 0.8; stroke: #ff0000; stroke-opacity: 0.8; stroke-linejoin: miter"/>
     <use xlink:href="#mbce930bcd5" x="142.233466" y="409.006678" style="fill: #ff0000; fill-opacity: 0.8; stroke: #ff0000; stroke-opacity: 0.8; stroke-linejoin: miter"/>
     <use xlink:href="#mbce930bcd5" x="190.204375" y="402.670625" style="fill: #ff0000; fill-opacity: 0.8; stroke: #ff0000; stroke-opacity: 0.8; stroke-linejoin: miter"/>
     <use xlink:href="#mbce930bcd5" x="238.175284" y="405.924274" style="fill: #ff0000; fill-opacity: 0.8; stroke: #ff0000; stroke-opacity: 0.8; stroke-linejoin: miter"/>
     <use xlink:href="#mbce930bcd5" x="286.146193" y="176.346825" style="fill: #ff0000; fill-opacity: 0.8; stroke: #ff0000; stroke-opacity: 0.8; stroke-linejoin: miter"/>
     <use xlink:href="#mbce930bcd5" x="334.117102" y="177.024369" style="fill: #ff0000; fill-opacity: 0.8; stroke: #ff0000; stroke-opacity: 0.8; stroke-linejoin: miter"/>
     <use xlink:href="#mbce930bcd5" x="382.088011" y="173.280302" style="fill: #ff0000; fill-opacity: 0.8; stroke: #ff0000; stroke-opacity: 0.8; stroke-linejoin: miter"/>
     <use xlink:href="#mbce930bcd5" x="430.05892" y="176.726364" style="fill: #ff0000; fill-opacity: 0.8; stroke: #ff0000; stroke-opacity: 0.8; stroke-linejoin: miter"/>
     <use xlink:href="#mbce930bcd5" x="478.02983" y="107.311631" style="fill: #ff0000; fill-opacity: 0.8; stroke: #ff0000; stroke-opacity: 0.8; stroke-linejoin: miter"/>
     <use xlink:href="#mbce930bcd5" x="526.000739" y="107.342787" style="fill: #ff0000; fill-opacity: 0.8; stroke: #ff0000; stroke-opacity: 0.8; stroke-linejoin: miter"/>
     <use xlink:href="#mbce930bcd5" x="573.971648" y="108.858813" style="fill: #ff0000; fill-opacity: 0.8; stroke: #ff0000; stroke-opacity: 0.8; stroke-linejoin: miter"/>
     <use xlink:href="#mbce930bcd5" x="621.942557" y="107.18017" style="fill: #ff0000; fill-opacity: 0.8; stroke: #ff0000; stroke-opacity: 0.8; stroke-linejoin: miter"/>
     <use xlink:href="#mbce930bcd5" x="669.913466" y="53.416112" style="fill: #ff0000; fill-opacity: 0.8; stroke: #ff0000; stroke-opacity: 0.8; stroke-linejoin: miter"/>
     <use xlink:href="#mbce930bcd5" x="717.884375" y="52.980076" style="fill: #ff0000; fill-opacity: 0.8; stroke: #ff0000; stroke-opacity: 0.8; stroke-linejoin: miter"/>
     <use xlink:href="#mbce930bcd5" x="765.855284" y="53.141282" style="fill: #ff0000; fill-opacity: 0.8; stroke: #ff0000; stroke-opacity: 0.8; stroke-linejoin: miter"/>
     <use xlink:href="#mbce930bcd5" x="813.826193" y="53.181511" style="fill: #ff0000; fill-opacity: 0.8; stroke: #ff0000; stroke-opacity: 0.8; stroke-linejoin: miter"/>
    </g>
   </g>
   <g id="patch_3">
    <path d="M 58.284375 523.055625 
L 58.284375 41.515625 
" style="fill: none; stroke: #cccccc; stroke-linejoin: miter; stroke-linecap: square"/>
   </g>
   <g id="patch_4">
    <path d="M 849.804375 523.055625 
L 849.804375 41.515625 
" style="fill: none; stroke: #cccccc; stroke-linejoin: miter; stroke-linecap: square"/>
   </g>
   <g id="patch_5">
    <path d="M 58.284375 523.055625 
L 849.804375 523.055625 
" style="fill: none; stroke: #cccccc; stroke-linejoin: miter; stroke-linecap: square"/>
   </g>
   <g id="patch_6">
    <path d="M 58.284375 41.515625 
L 849.804375 41.515625 
" style="fill: none; stroke: #cccccc; stroke-linejoin: miter; stroke-linecap: square"/>
   </g>
   <g id="text_25">
    <!-- Time Fraction Trends Across Test Cases -->
    <g style="fill: #262626" transform="translate(261.939688 21.515625) scale(0.2 -0.2)">
     <defs>
      <path id="Arial-BoldMT-64" d="M 3503 0 
L 2688 0 
L 2688 488 
Q 2484 203 2207 64 
Q 1931 -75 1650 -75 
Q 1078 -75 670 386 
Q 263 847 263 1672 
Q 263 2516 659 2955 
Q 1056 3394 1663 3394 
Q 2219 3394 2625 2931 
L 2625 4581 
L 3503 4581 
L 3503 0 
z
M 1159 1731 
Q 1159 1200 1306 963 
Q 1519 619 1900 619 
Q 2203 619 2415 876 
Q 2628 1134 2628 1647 
Q 2628 2219 2422 2470 
Q 2216 2722 1894 2722 
Q 1581 2722 1370 2473 
Q 1159 2225 1159 1731 
z
" transform="scale(0.015625)"/>
      <path id="Arial-BoldMT-41" d="M 4597 0 
L 3591 0 
L 3191 1041 
L 1359 1041 
L 981 0 
L 0 0 
L 1784 4581 
L 2763 4581 
L 4597 0 
z
M 2894 1813 
L 2263 3513 
L 1644 1813 
L 2894 1813 
z
" transform="scale(0.015625)"/>
     </defs>
     <use xlink:href="#Arial-BoldMT-54"/>
     <use xlink:href="#Arial-BoldMT-69" transform="translate(59.333984 0)"/>
     <use xlink:href="#Arial-BoldMT-6d" transform="translate(87.117188 0)"/>
     <use xlink:href="#Arial-BoldMT-65" transform="translate(176.033203 0)"/>
     <use xlink:href="#Arial-BoldMT-20" transform="translate(231.648438 0)"/>
     <use xlink:href="#Arial-BoldMT-46" transform="translate(259.431641 0)"/>
     <use xlink:href="#Arial-BoldMT-72" transform="translate(320.515625 0)"/>
     <use xlink:href="#Arial-BoldMT-61" transform="translate(359.431641 0)"/>
     <use xlink:href="#Arial-BoldMT-63" transform="translate(415.046875 0)"/>
     <use xlink:href="#Arial-BoldMT-74" transform="translate(470.662109 0)"/>
     <use xlink:href="#Arial-BoldMT-69" transform="translate(503.962891 0)"/>
     <use xlink:href="#Arial-BoldMT-6f" transform="translate(531.746094 0)"/>
     <use xlink:href="#Arial-BoldMT-6e" transform="translate(592.830078 0)"/>
     <use xlink:href="#Arial-BoldMT-20" transform="translate(653.914062 0)"/>
     <use xlink:href="#Arial-BoldMT-54" transform="translate(681.697266 0)"/>
     <use xlink:href="#Arial-BoldMT-72" transform="translate(737.28125 0)"/>
     <use xlink:href="#Arial-BoldMT-65" transform="translate(776.197266 0)"/>
     <use xlink:href="#Arial-BoldMT-6e" transform="translate(831.8125 0)"/>
     <use xlink:href="#Arial-BoldMT-64" transform="translate(892.896484 0)"/>
     <use xlink:href="#Arial-BoldMT-73" transform="translate(953.980469 0)"/>
     <use xlink:href="#Arial-BoldMT-20" transform="translate(1009.595703 0)"/>
     <use xlink:href="#Arial-BoldMT-41" transform="translate(1033.628906 0)"/>
     <use xlink:href="#Arial-BoldMT-63" transform="translate(1105.845703 0)"/>
     <use xlink:href="#Arial-BoldMT-72" transform="translate(1161.460938 0)"/>
     <use xlink:href="#Arial-BoldMT-6f" transform="translate(1200.376953 0)"/>
     <use xlink:href="#Arial-BoldMT-73" transform="translate(1261.460938 0)"/>
     <use xlink:href="#Arial-BoldMT-73" transform="translate(1317.076172 0)"/>
     <use xlink:href="#Arial-BoldMT-20" transform="translate(1372.691406 0)"/>
     <use xlink:href="#Arial-BoldMT-54" transform="translate(1400.474609 0)"/>
     <use xlink:href="#Arial-BoldMT-65" transform="translate(1454.183594 0)"/>
     <use xlink:href="#Arial-BoldMT-73" transform="translate(1509.798828 0)"/>
     <use xlink:href="#Arial-BoldMT-74" transform="translate(1565.414062 0)"/>
     <use xlink:href="#Arial-BoldMT-20" transform="translate(1598.714844 0)"/>
     <use xlink:href="#Arial-BoldMT-43" transform="translate(1626.498047 0)"/>
     <use xlink:href="#Arial-BoldMT-61" transform="translate(1698.714844 0)"/>
     <use xlink:href="#Arial-BoldMT-73" transform="translate(1754.330078 0)"/>
     <use xlink:href="#Arial-BoldMT-65" transform="translate(1809.945312 0)"/>
     <use xlink:href="#Arial-BoldMT-73" transform="translate(1865.560547 0)"/>
    </g>
   </g>
   <g id="legend_1">
    <g id="line2d_128">
     <path d="M 69.084375 56.705 
L 81.084375 56.705 
L 93.084375 56.705 
" style="fill: none; stroke: #0000ff; stroke-opacity: 0.8; stroke-width: 3; stroke-linecap: round"/>
     <g>
      <use xlink:href="#m3223e1ba84" x="81.084375" y="56.705" style="fill: #0000ff; fill-opacity: 0.8; stroke: #0000ff; stroke-opacity: 0.8"/>
     </g>
    </g>
    <g id="text_26">
     <!-- Substitutions -->
     <g style="fill: #262626" transform="translate(102.684375 60.905) scale(0.12 -0.12)">
      <defs>
       <path id="ArialMT-53" d="M 288 1472 
L 859 1522 
Q 900 1178 1048 958 
Q 1197 738 1509 602 
Q 1822 466 2213 466 
Q 2559 466 2825 569 
Q 3091 672 3220 851 
Q 3350 1031 3350 1244 
Q 3350 1459 3225 1620 
Q 3100 1781 2813 1891 
Q 2628 1963 1997 2114 
Q 1366 2266 1113 2400 
Q 784 2572 623 2826 
Q 463 3081 463 3397 
Q 463 3744 659 4045 
Q 856 4347 1234 4503 
Q 1613 4659 2075 4659 
Q 2584 4659 2973 4495 
Q 3363 4331 3572 4012 
Q 3781 3694 3797 3291 
L 3216 3247 
Q 3169 3681 2898 3903 
Q 2628 4125 2100 4125 
Q 1550 4125 1298 3923 
Q 1047 3722 1047 3438 
Q 1047 3191 1225 3031 
Q 1400 2872 2139 2705 
Q 2878 2538 3153 2413 
Q 3553 2228 3743 1945 
Q 3934 1663 3934 1294 
Q 3934 928 3725 604 
Q 3516 281 3123 101 
Q 2731 -78 2241 -78 
Q 1619 -78 1198 103 
Q 778 284 539 648 
Q 300 1013 288 1472 
z
" transform="scale(0.015625)"/>
       <path id="ArialMT-75" d="M 2597 0 
L 2597 488 
Q 2209 -75 1544 -75 
Q 1250 -75 995 37 
Q 741 150 617 320 
Q 494 491 444 738 
Q 409 903 409 1263 
L 409 3319 
L 972 3319 
L 972 1478 
Q 972 1038 1006 884 
Q 1059 663 1231 536 
Q 1403 409 1656 409 
Q 1909 409 2131 539 
Q 2353 669 2445 892 
Q 2538 1116 2538 1541 
L 2538 3319 
L 3100 3319 
L 3100 0 
L 2597 0 
z
" transform="scale(0.015625)"/>
       <path id="ArialMT-62" d="M 941 0 
L 419 0 
L 419 4581 
L 981 4581 
L 981 2947 
Q 1338 3394 1891 3394 
Q 2197 3394 2470 3270 
Q 2744 3147 2920 2923 
Q 3097 2700 3197 2384 
Q 3297 2069 3297 1709 
Q 3297 856 2875 390 
Q 2453 -75 1863 -75 
Q 1275 -75 941 416 
L 941 0 
z
M 934 1684 
Q 934 1088 1097 822 
Q 1363 388 1816 388 
Q 2184 388 2453 708 
Q 2722 1028 2722 1663 
Q 2722 2313 2464 2622 
Q 2206 2931 1841 2931 
Q 1472 2931 1203 2611 
Q 934 2291 934 1684 
z
" transform="scale(0.015625)"/>
       <path id="ArialMT-73" d="M 197 991 
L 753 1078 
Q 800 744 1014 566 
Q 1228 388 1613 388 
Q 2000 388 2187 545 
Q 2375 703 2375 916 
Q 2375 1106 2209 1216 
Q 2094 1291 1634 1406 
Q 1016 1563 777 1677 
Q 538 1791 414 1992 
Q 291 2194 291 2438 
Q 291 2659 392 2848 
Q 494 3038 669 3163 
Q 800 3259 1026 3326 
Q 1253 3394 1513 3394 
Q 1903 3394 2198 3281 
Q 2494 3169 2634 2976 
Q 2775 2784 2828 2463 
L 2278 2388 
Q 2241 2644 2061 2787 
Q 1881 2931 1553 2931 
Q 1166 2931 1000 2803 
Q 834 2675 834 2503 
Q 834 2394 903 2306 
Q 972 2216 1119 2156 
Q 1203 2125 1616 2013 
Q 2213 1853 2448 1751 
Q 2684 1650 2818 1456 
Q 2953 1263 2953 975 
Q 2953 694 2789 445 
Q 2625 197 2315 61 
Q 2006 -75 1616 -75 
Q 969 -75 630 194 
Q 291 463 197 991 
z
" transform="scale(0.015625)"/>
       <path id="ArialMT-74" d="M 1650 503 
L 1731 6 
Q 1494 -44 1306 -44 
Q 1000 -44 831 53 
Q 663 150 594 308 
Q 525 466 525 972 
L 525 2881 
L 113 2881 
L 113 3319 
L 525 3319 
L 525 4141 
L 1084 4478 
L 1084 3319 
L 1650 3319 
L 1650 2881 
L 1084 2881 
L 1084 941 
Q 1084 700 1114 631 
Q 1144 563 1211 522 
Q 1278 481 1403 481 
Q 1497 481 1650 503 
z
" transform="scale(0.015625)"/>
       <path id="ArialMT-69" d="M 425 3934 
L 425 4581 
L 988 4581 
L 988 3934 
L 425 3934 
z
M 425 0 
L 425 3319 
L 988 3319 
L 988 0 
L 425 0 
z
" transform="scale(0.015625)"/>
       <path id="ArialMT-6f" d="M 213 1659 
Q 213 2581 725 3025 
Q 1153 3394 1769 3394 
Q 2453 3394 2887 2945 
Q 3322 2497 3322 1706 
Q 3322 1066 3130 698 
Q 2938 331 2570 128 
Q 2203 -75 1769 -75 
Q 1072 -75 642 372 
Q 213 819 213 1659 
z
M 791 1659 
Q 791 1022 1069 705 
Q 1347 388 1769 388 
Q 2188 388 2466 706 
Q 2744 1025 2744 1678 
Q 2744 2294 2464 2611 
Q 2184 2928 1769 2928 
Q 1347 2928 1069 2612 
Q 791 2297 791 1659 
z
" transform="scale(0.015625)"/>
       <path id="ArialMT-6e" d="M 422 0 
L 422 3319 
L 928 3319 
L 928 2847 
Q 1294 3394 1984 3394 
Q 2284 3394 2536 3286 
Q 2788 3178 2913 3003 
Q 3038 2828 3088 2588 
Q 3119 2431 3119 2041 
L 3119 0 
L 2556 0 
L 2556 2019 
Q 2556 2363 2490 2533 
Q 2425 2703 2258 2804 
Q 2091 2906 1866 2906 
Q 1506 2906 1245 2678 
Q 984 2450 984 1813 
L 984 0 
L 422 0 
z
" transform="scale(0.015625)"/>
      </defs>
      <use xlink:href="#ArialMT-53"/>
      <use xlink:href="#ArialMT-75" transform="translate(66.699219 0)"/>
      <use xlink:href="#ArialMT-62" transform="translate(122.314453 0)"/>
      <use xlink:href="#ArialMT-73" transform="translate(177.929688 0)"/>
      <use xlink:href="#ArialMT-74" transform="translate(227.929688 0)"/>
      <use xlink:href="#ArialMT-69" transform="translate(255.712891 0)"/>
      <use xlink:href="#ArialMT-74" transform="translate(277.929688 0)"/>
      <use xlink:href="#ArialMT-75" transform="translate(305.712891 0)"/>
      <use xlink:href="#ArialMT-74" transform="translate(361.328125 0)"/>
      <use xlink:href="#ArialMT-69" transform="translate(389.111328 0)"/>
      <use xlink:href="#ArialMT-6f" transform="translate(411.328125 0)"/>
      <use xlink:href="#ArialMT-6e" transform="translate(466.943359 0)"/>
      <use xlink:href="#ArialMT-73" transform="translate(522.558594 0)"/>
     </g>
    </g>
    <g id="line2d_129">
     <path d="M 69.084375 73.679375 
L 81.084375 73.679375 
L 93.084375 73.679375 
" style="fill: none; stroke: #ff0000; stroke-opacity: 0.8; stroke-width: 3; stroke-linecap: round"/>
     <g>
      <use xlink:href="#mbce930bcd5" x="81.084375" y="73.679375" style="fill: #ff0000; fill-opacity: 0.8; stroke: #ff0000; stroke-opacity: 0.8; stroke-linejoin: miter"/>
     </g>
    </g>
    <g id="text_27">
     <!-- Indels -->
     <g style="fill: #262626" transform="translate(102.684375 77.879375) scale(0.12 -0.12)">
      <defs>
       <path id="ArialMT-49" d="M 597 0 
L 597 4581 
L 1203 4581 
L 1203 0 
L 597 0 
z
" transform="scale(0.015625)"/>
       <path id="ArialMT-64" d="M 2575 0 
L 2575 419 
Q 2259 -75 1647 -75 
Q 1250 -75 917 144 
Q 584 363 401 755 
Q 219 1147 219 1656 
Q 219 2153 384 2558 
Q 550 2963 881 3178 
Q 1213 3394 1622 3394 
Q 1922 3394 2156 3267 
Q 2391 3141 2538 2938 
L 2538 4581 
L 3097 4581 
L 3097 0 
L 2575 0 
z
M 797 1656 
Q 797 1019 1065 703 
Q 1334 388 1700 388 
Q 2069 388 2326 689 
Q 2584 991 2584 1609 
Q 2584 2291 2321 2609 
Q 2059 2928 1675 2928 
Q 1300 2928 1048 2622 
Q 797 2316 797 1656 
z
" transform="scale(0.015625)"/>
       <path id="ArialMT-65" d="M 2694 1069 
L 3275 997 
Q 3138 488 2766 206 
Q 2394 -75 1816 -75 
Q 1088 -75 661 373 
Q 234 822 234 1631 
Q 234 2469 665 2931 
Q 1097 3394 1784 3394 
Q 2450 3394 2872 2941 
Q 3294 2488 3294 1666 
Q 3294 1616 3291 1516 
L 816 1516 
Q 847 969 1125 678 
Q 1403 388 1819 388 
Q 2128 388 2347 550 
Q 2566 713 2694 1069 
z
M 847 1978 
L 2700 1978 
Q 2663 2397 2488 2606 
Q 2219 2931 1791 2931 
Q 1403 2931 1139 2672 
Q 875 2413 847 1978 
z
" transform="scale(0.015625)"/>
       <path id="ArialMT-6c" d="M 409 0 
L 409 4581 
L 972 4581 
L 972 0 
L 409 0 
z
" transform="scale(0.015625)"/>
      </defs>
      <use xlink:href="#ArialMT-49"/>
      <use xlink:href="#ArialMT-6e" transform="translate(27.783203 0)"/>
      <use xlink:href="#ArialMT-64" transform="translate(83.398438 0)"/>
      <use xlink:href="#ArialMT-65" transform="translate(139.013672 0)"/>
      <use xlink:href="#ArialMT-6c" transform="translate(194.628906 0)"/>
      <use xlink:href="#ArialMT-73" transform="translate(216.845703 0)"/>
     </g>
    </g>
   </g>
  </g>
 </g>
 <defs>
  <clipPath id="p959a5376f7">
   <rect x="58.284375" y="41.515625" width="791.52" height="481.54"/>
  </clipPath>
 </defs>
</svg>
