<?xml version="1.0" encoding="utf-8" standalone="no"?>
<!DOCTYPE svg PUBLIC "-//W3C//DTD SVG 1.1//EN"
  "http://www.w3.org/Graphics/SVG/1.1/DTD/svg11.dtd">
<svg xmlns:xlink="http://www.w3.org/1999/xlink" width="856.171875pt" height="568.188125pt" viewBox="0 0 856.171875 568.188125" xmlns="http://www.w3.org/2000/svg" version="1.1">
 <metadata>
  <rdf:RDF xmlns:dc="http://purl.org/dc/elements/1.1/" xmlns:cc="http://creativecommons.org/ns#" xmlns:rdf="http://www.w3.org/1999/02/22-rdf-syntax-ns#">
   <cc:Work>
    <dc:type rdf:resource="http://purl.org/dc/dcmitype/StillImage"/>
    <dc:date>2025-07-31T17:25:46.745806</dc:date>
    <dc:format>image/svg+xml</dc:format>
    <dc:creator>
     <cc:Agent>
      <dc:title>Matplotlib v3.10.3, https://matplotlib.org/</dc:title>
     </cc:Agent>
    </dc:creator>
   </cc:Work>
  </rdf:RDF>
 </metadata>
 <defs>
  <style type="text/css">*{stroke-linejoin: round; stroke-linecap: butt}</style>
 </defs>
 <g id="figure_1">
  <g id="patch_1">
   <path d="M 0 568.188125 
L 856.171875 568.188125 
L 856.171875 0 
L 0 0 
z
" style="fill: #ffffff"/>
  </g>
  <g id="axes_1">
   <g id="patch_2">
    <path d="M 58.171875 521.79375 
L 848.971875 521.79375 
L 848.971875 41.69375 
L 58.171875 41.69375 
z
" style="fill: #ffffff"/>
   </g>
   <g id="matplotlib.axis_1">
    <g id="xtick_1">
     <g id="line2d_1">
      <path d="M 94.11733 521.79375 
L 94.11733 41.69375 
" clip-path="url(#p0183eca7a3)" style="fill: none; stroke: #cccccc; stroke-opacity: 0.3; stroke-width: 0.8; stroke-linecap: round"/>
     </g>
     <g id="line2d_2"/>
     <g id="text_1">
      <!-- 1 -->
      <g style="fill: #262626" transform="translate(89.66858 536.88875) scale(0.16 -0.16)">
       <defs>
        <path id="LiberationSans-31" d="M 488 0 
L 488 478 
L 1609 478 
L 1609 3866 
L 616 3156 
L 616 3688 
L 1656 4403 
L 2175 4403 
L 2175 478 
L 3247 478 
L 3247 0 
L 488 0 
z
" transform="scale(0.015625)"/>
       </defs>
       <use xlink:href="#LiberationSans-31"/>
      </g>
     </g>
    </g>
    <g id="xtick_2">
     <g id="line2d_3">
      <path d="M 142.044602 521.79375 
L 142.044602 41.69375 
" clip-path="url(#p0183eca7a3)" style="fill: none; stroke: #cccccc; stroke-opacity: 0.3; stroke-width: 0.8; stroke-linecap: round"/>
     </g>
     <g id="line2d_4"/>
     <g id="text_2">
      <!-- 2 -->
      <g style="fill: #262626" transform="translate(137.595852 536.88875) scale(0.16 -0.16)">
       <defs>
        <path id="LiberationSans-32" d="M 322 0 
L 322 397 
Q 481 763 711 1042 
Q 941 1322 1194 1548 
Q 1447 1775 1695 1969 
Q 1944 2163 2144 2356 
Q 2344 2550 2467 2762 
Q 2591 2975 2591 3244 
Q 2591 3606 2378 3806 
Q 2166 4006 1788 4006 
Q 1428 4006 1195 3811 
Q 963 3616 922 3263 
L 347 3316 
Q 409 3844 795 4156 
Q 1181 4469 1788 4469 
Q 2453 4469 2811 4155 
Q 3169 3841 3169 3263 
Q 3169 3006 3051 2753 
Q 2934 2500 2703 2247 
Q 2472 1994 1819 1463 
Q 1459 1169 1246 933 
Q 1034 697 941 478 
L 3238 478 
L 3238 0 
L 322 0 
z
" transform="scale(0.015625)"/>
       </defs>
       <use xlink:href="#LiberationSans-32"/>
      </g>
     </g>
    </g>
    <g id="xtick_3">
     <g id="line2d_5">
      <path d="M 189.971875 521.79375 
L 189.971875 41.69375 
" clip-path="url(#p0183eca7a3)" style="fill: none; stroke: #cccccc; stroke-opacity: 0.3; stroke-width: 0.8; stroke-linecap: round"/>
     </g>
     <g id="line2d_6"/>
     <g id="text_3">
      <!-- 3 -->
      <g style="fill: #262626" transform="translate(185.523125 536.88875) scale(0.16 -0.16)">
       <defs>
        <path id="LiberationSans-33" d="M 3278 1216 
Q 3278 606 2890 271 
Q 2503 -63 1784 -63 
Q 1116 -63 717 239 
Q 319 541 244 1131 
L 825 1184 
Q 938 403 1784 403 
Q 2209 403 2451 612 
Q 2694 822 2694 1234 
Q 2694 1594 2417 1795 
Q 2141 1997 1619 1997 
L 1300 1997 
L 1300 2484 
L 1606 2484 
Q 2069 2484 2323 2686 
Q 2578 2888 2578 3244 
Q 2578 3597 2370 3801 
Q 2163 4006 1753 4006 
Q 1381 4006 1151 3815 
Q 922 3625 884 3278 
L 319 3322 
Q 381 3863 767 4166 
Q 1153 4469 1759 4469 
Q 2422 4469 2789 4161 
Q 3156 3853 3156 3303 
Q 3156 2881 2920 2617 
Q 2684 2353 2234 2259 
L 2234 2247 
Q 2728 2194 3003 1916 
Q 3278 1638 3278 1216 
z
" transform="scale(0.015625)"/>
       </defs>
       <use xlink:href="#LiberationSans-33"/>
      </g>
     </g>
    </g>
    <g id="xtick_4">
     <g id="line2d_7">
      <path d="M 237.899148 521.79375 
L 237.899148 41.69375 
" clip-path="url(#p0183eca7a3)" style="fill: none; stroke: #cccccc; stroke-opacity: 0.3; stroke-width: 0.8; stroke-linecap: round"/>
     </g>
     <g id="line2d_8"/>
     <g id="text_4">
      <!-- 4 -->
      <g style="fill: #262626" transform="translate(233.450398 536.88875) scale(0.16 -0.16)">
       <defs>
        <path id="LiberationSans-34" d="M 2753 997 
L 2753 0 
L 2222 0 
L 2222 997 
L 147 997 
L 147 1434 
L 2163 4403 
L 2753 4403 
L 2753 1441 
L 3372 1441 
L 3372 997 
L 2753 997 
z
M 2222 3769 
Q 2216 3750 2134 3603 
Q 2053 3456 2013 3397 
L 884 1734 
L 716 1503 
L 666 1441 
L 2222 1441 
L 2222 3769 
z
" transform="scale(0.015625)"/>
       </defs>
       <use xlink:href="#LiberationSans-34"/>
      </g>
     </g>
    </g>
    <g id="xtick_5">
     <g id="line2d_9">
      <path d="M 285.82642 521.79375 
L 285.82642 41.69375 
" clip-path="url(#p0183eca7a3)" style="fill: none; stroke: #cccccc; stroke-opacity: 0.3; stroke-width: 0.8; stroke-linecap: round"/>
     </g>
     <g id="line2d_10"/>
     <g id="text_5">
      <!-- 5 -->
      <g style="fill: #262626" transform="translate(281.37767 536.88875) scale(0.16 -0.16)">
       <defs>
        <path id="LiberationSans-35" d="M 3291 1434 
Q 3291 738 2877 337 
Q 2463 -63 1728 -63 
Q 1113 -63 734 206 
Q 356 475 256 984 
L 825 1050 
Q 1003 397 1741 397 
Q 2194 397 2450 670 
Q 2706 944 2706 1422 
Q 2706 1838 2448 2094 
Q 2191 2350 1753 2350 
Q 1525 2350 1328 2278 
Q 1131 2206 934 2034 
L 384 2034 
L 531 4403 
L 3034 4403 
L 3034 3925 
L 1044 3925 
L 959 2528 
Q 1325 2809 1869 2809 
Q 2519 2809 2905 2428 
Q 3291 2047 3291 1434 
z
" transform="scale(0.015625)"/>
       </defs>
       <use xlink:href="#LiberationSans-35"/>
      </g>
     </g>
    </g>
    <g id="xtick_6">
     <g id="line2d_11">
      <path d="M 333.753693 521.79375 
L 333.753693 41.69375 
" clip-path="url(#p0183eca7a3)" style="fill: none; stroke: #cccccc; stroke-opacity: 0.3; stroke-width: 0.8; stroke-linecap: round"/>
     </g>
     <g id="line2d_12"/>
     <g id="text_6">
      <!-- 6 -->
      <g style="fill: #262626" transform="translate(329.304943 536.88875) scale(0.16 -0.16)">
       <defs>
        <path id="LiberationSans-36" d="M 3278 1441 
Q 3278 744 2900 340 
Q 2522 -63 1856 -63 
Q 1113 -63 719 490 
Q 325 1044 325 2100 
Q 325 3244 734 3856 
Q 1144 4469 1900 4469 
Q 2897 4469 3156 3572 
L 2619 3475 
Q 2453 4013 1894 4013 
Q 1413 4013 1148 3564 
Q 884 3116 884 2266 
Q 1038 2550 1316 2698 
Q 1594 2847 1953 2847 
Q 2563 2847 2920 2465 
Q 3278 2084 3278 1441 
z
M 2706 1416 
Q 2706 1894 2472 2153 
Q 2238 2413 1819 2413 
Q 1425 2413 1183 2183 
Q 941 1953 941 1550 
Q 941 1041 1192 716 
Q 1444 391 1838 391 
Q 2244 391 2475 664 
Q 2706 938 2706 1416 
z
" transform="scale(0.015625)"/>
       </defs>
       <use xlink:href="#LiberationSans-36"/>
      </g>
     </g>
    </g>
    <g id="xtick_7">
     <g id="line2d_13">
      <path d="M 381.680966 521.79375 
L 381.680966 41.69375 
" clip-path="url(#p0183eca7a3)" style="fill: none; stroke: #cccccc; stroke-opacity: 0.3; stroke-width: 0.8; stroke-linecap: round"/>
     </g>
     <g id="line2d_14"/>
     <g id="text_7">
      <!-- 7 -->
      <g style="fill: #262626" transform="translate(377.232216 536.88875) scale(0.16 -0.16)">
       <defs>
        <path id="LiberationSans-37" d="M 3238 3947 
Q 2563 2916 2284 2331 
Q 2006 1747 1867 1178 
Q 1728 609 1728 0 
L 1141 0 
Q 1141 844 1498 1776 
Q 1856 2709 2694 3925 
L 328 3925 
L 328 4403 
L 3238 4403 
L 3238 3947 
z
" transform="scale(0.015625)"/>
       </defs>
       <use xlink:href="#LiberationSans-37"/>
      </g>
     </g>
    </g>
    <g id="xtick_8">
     <g id="line2d_15">
      <path d="M 429.608239 521.79375 
L 429.608239 41.69375 
" clip-path="url(#p0183eca7a3)" style="fill: none; stroke: #cccccc; stroke-opacity: 0.3; stroke-width: 0.8; stroke-linecap: round"/>
     </g>
     <g id="line2d_16"/>
     <g id="text_8">
      <!-- 8 -->
      <g style="fill: #262626" transform="translate(425.159489 536.88875) scale(0.16 -0.16)">
       <defs>
        <path id="LiberationSans-38" d="M 3281 1228 
Q 3281 619 2893 278 
Q 2506 -63 1781 -63 
Q 1075 -63 676 271 
Q 278 606 278 1222 
Q 278 1653 525 1947 
Q 772 2241 1156 2303 
L 1156 2316 
Q 797 2400 589 2681 
Q 381 2963 381 3341 
Q 381 3844 757 4156 
Q 1134 4469 1769 4469 
Q 2419 4469 2795 4162 
Q 3172 3856 3172 3334 
Q 3172 2956 2962 2675 
Q 2753 2394 2391 2322 
L 2391 2309 
Q 2813 2241 3047 1952 
Q 3281 1663 3281 1228 
z
M 2588 3303 
Q 2588 4050 1769 4050 
Q 1372 4050 1164 3862 
Q 956 3675 956 3303 
Q 956 2925 1170 2726 
Q 1384 2528 1775 2528 
Q 2172 2528 2380 2711 
Q 2588 2894 2588 3303 
z
M 2697 1281 
Q 2697 1691 2453 1898 
Q 2209 2106 1769 2106 
Q 1341 2106 1100 1882 
Q 859 1659 859 1269 
Q 859 359 1788 359 
Q 2247 359 2472 579 
Q 2697 800 2697 1281 
z
" transform="scale(0.015625)"/>
       </defs>
       <use xlink:href="#LiberationSans-38"/>
      </g>
     </g>
    </g>
    <g id="xtick_9">
     <g id="line2d_17">
      <path d="M 477.535511 521.79375 
L 477.535511 41.69375 
" clip-path="url(#p0183eca7a3)" style="fill: none; stroke: #cccccc; stroke-opacity: 0.3; stroke-width: 0.8; stroke-linecap: round"/>
     </g>
     <g id="line2d_18"/>
     <g id="text_9">
      <!-- 9 -->
      <g style="fill: #262626" transform="translate(473.086761 536.88875) scale(0.16 -0.16)">
       <defs>
        <path id="LiberationSans-39" d="M 3256 2291 
Q 3256 1156 2842 546 
Q 2428 -63 1663 -63 
Q 1147 -63 836 154 
Q 525 372 391 856 
L 928 941 
Q 1097 391 1672 391 
Q 2156 391 2422 841 
Q 2688 1291 2700 2125 
Q 2575 1844 2272 1673 
Q 1969 1503 1606 1503 
Q 1013 1503 656 1909 
Q 300 2316 300 2988 
Q 300 3678 687 4073 
Q 1075 4469 1766 4469 
Q 2500 4469 2878 3925 
Q 3256 3381 3256 2291 
z
M 2644 2834 
Q 2644 3366 2400 3689 
Q 2156 4013 1747 4013 
Q 1341 4013 1106 3736 
Q 872 3459 872 2988 
Q 872 2506 1106 2226 
Q 1341 1947 1741 1947 
Q 1984 1947 2193 2058 
Q 2403 2169 2523 2372 
Q 2644 2575 2644 2834 
z
" transform="scale(0.015625)"/>
       </defs>
       <use xlink:href="#LiberationSans-39"/>
      </g>
     </g>
    </g>
    <g id="xtick_10">
     <g id="line2d_19">
      <path d="M 525.462784 521.79375 
L 525.462784 41.69375 
" clip-path="url(#p0183eca7a3)" style="fill: none; stroke: #cccccc; stroke-opacity: 0.3; stroke-width: 0.8; stroke-linecap: round"/>
     </g>
     <g id="line2d_20"/>
     <g id="text_10">
      <!-- 10 -->
      <g style="fill: #262626" transform="translate(516.565284 536.88875) scale(0.16 -0.16)">
       <defs>
        <path id="LiberationSans-30" d="M 3309 2203 
Q 3309 1100 2920 518 
Q 2531 -63 1772 -63 
Q 1013 -63 631 515 
Q 250 1094 250 2203 
Q 250 3338 620 3903 
Q 991 4469 1791 4469 
Q 2569 4469 2939 3897 
Q 3309 3325 3309 2203 
z
M 2738 2203 
Q 2738 3156 2517 3584 
Q 2297 4013 1791 4013 
Q 1272 4013 1045 3591 
Q 819 3169 819 2203 
Q 819 1266 1048 831 
Q 1278 397 1778 397 
Q 2275 397 2506 840 
Q 2738 1284 2738 2203 
z
" transform="scale(0.015625)"/>
       </defs>
       <use xlink:href="#LiberationSans-31"/>
       <use xlink:href="#LiberationSans-30" transform="translate(55.615234 0)"/>
      </g>
     </g>
    </g>
    <g id="xtick_11">
     <g id="line2d_21">
      <path d="M 573.390057 521.79375 
L 573.390057 41.69375 
" clip-path="url(#p0183eca7a3)" style="fill: none; stroke: #cccccc; stroke-opacity: 0.3; stroke-width: 0.8; stroke-linecap: round"/>
     </g>
     <g id="line2d_22"/>
     <g id="text_11">
      <!-- 11 -->
      <g style="fill: #262626" transform="translate(565.082557 536.88875) scale(0.16 -0.16)">
       <use xlink:href="#LiberationSans-31"/>
       <use xlink:href="#LiberationSans-31" transform="translate(48.240234 0)"/>
      </g>
     </g>
    </g>
    <g id="xtick_12">
     <g id="line2d_23">
      <path d="M 621.31733 521.79375 
L 621.31733 41.69375 
" clip-path="url(#p0183eca7a3)" style="fill: none; stroke: #cccccc; stroke-opacity: 0.3; stroke-width: 0.8; stroke-linecap: round"/>
     </g>
     <g id="line2d_24"/>
     <g id="text_12">
      <!-- 12 -->
      <g style="fill: #262626" transform="translate(612.41983 536.88875) scale(0.16 -0.16)">
       <use xlink:href="#LiberationSans-31"/>
       <use xlink:href="#LiberationSans-32" transform="translate(55.615234 0)"/>
      </g>
     </g>
    </g>
    <g id="xtick_13">
     <g id="line2d_25">
      <path d="M 669.244602 521.79375 
L 669.244602 41.69375 
" clip-path="url(#p0183eca7a3)" style="fill: none; stroke: #cccccc; stroke-opacity: 0.3; stroke-width: 0.8; stroke-linecap: round"/>
     </g>
     <g id="line2d_26"/>
     <g id="text_13">
      <!-- 13 -->
      <g style="fill: #262626" transform="translate(660.347102 536.88875) scale(0.16 -0.16)">
       <use xlink:href="#LiberationSans-31"/>
       <use xlink:href="#LiberationSans-33" transform="translate(55.615234 0)"/>
      </g>
     </g>
    </g>
    <g id="xtick_14">
     <g id="line2d_27">
      <path d="M 717.171875 521.79375 
L 717.171875 41.69375 
" clip-path="url(#p0183eca7a3)" style="fill: none; stroke: #cccccc; stroke-opacity: 0.3; stroke-width: 0.8; stroke-linecap: round"/>
     </g>
     <g id="line2d_28"/>
     <g id="text_14">
      <!-- 14 -->
      <g style="fill: #262626" transform="translate(708.274375 536.88875) scale(0.16 -0.16)">
       <use xlink:href="#LiberationSans-31"/>
       <use xlink:href="#LiberationSans-34" transform="translate(55.615234 0)"/>
      </g>
     </g>
    </g>
    <g id="xtick_15">
     <g id="line2d_29">
      <path d="M 765.099148 521.79375 
L 765.099148 41.69375 
" clip-path="url(#p0183eca7a3)" style="fill: none; stroke: #cccccc; stroke-opacity: 0.3; stroke-width: 0.8; stroke-linecap: round"/>
     </g>
     <g id="line2d_30"/>
     <g id="text_15">
      <!-- 15 -->
      <g style="fill: #262626" transform="translate(756.201648 536.88875) scale(0.16 -0.16)">
       <use xlink:href="#LiberationSans-31"/>
       <use xlink:href="#LiberationSans-35" transform="translate(55.615234 0)"/>
      </g>
     </g>
    </g>
    <g id="xtick_16">
     <g id="line2d_31">
      <path d="M 813.02642 521.79375 
L 813.02642 41.69375 
" clip-path="url(#p0183eca7a3)" style="fill: none; stroke: #cccccc; stroke-opacity: 0.3; stroke-width: 0.8; stroke-linecap: round"/>
     </g>
     <g id="line2d_32"/>
     <g id="text_16">
      <!-- 16 -->
      <g style="fill: #262626" transform="translate(804.12892 536.88875) scale(0.16 -0.16)">
       <use xlink:href="#LiberationSans-31"/>
       <use xlink:href="#LiberationSans-36" transform="translate(55.615234 0)"/>
      </g>
     </g>
    </g>
    <g id="xtick_17">
     <g id="line2d_33"/>
    </g>
    <g id="xtick_18">
     <g id="line2d_34"/>
    </g>
    <g id="xtick_19">
     <g id="line2d_35"/>
    </g>
    <g id="xtick_20">
     <g id="line2d_36"/>
    </g>
    <g id="xtick_21">
     <g id="line2d_37"/>
    </g>
    <g id="xtick_22">
     <g id="line2d_38"/>
    </g>
    <g id="xtick_23">
     <g id="line2d_39"/>
    </g>
    <g id="xtick_24">
     <g id="line2d_40"/>
    </g>
    <g id="xtick_25">
     <g id="line2d_41"/>
    </g>
    <g id="xtick_26">
     <g id="line2d_42"/>
    </g>
    <g id="xtick_27">
     <g id="line2d_43"/>
    </g>
    <g id="xtick_28">
     <g id="line2d_44"/>
    </g>
    <g id="xtick_29">
     <g id="line2d_45"/>
    </g>
    <g id="xtick_30">
     <g id="line2d_46"/>
    </g>
    <g id="xtick_31">
     <g id="line2d_47"/>
    </g>
    <g id="xtick_32">
     <g id="line2d_48"/>
    </g>
    <g id="xtick_33">
     <g id="line2d_49"/>
    </g>
    <g id="xtick_34">
     <g id="line2d_50"/>
    </g>
    <g id="xtick_35">
     <g id="line2d_51"/>
    </g>
    <g id="xtick_36">
     <g id="line2d_52"/>
    </g>
    <g id="xtick_37">
     <g id="line2d_53"/>
    </g>
    <g id="xtick_38">
     <g id="line2d_54"/>
    </g>
    <g id="xtick_39">
     <g id="line2d_55"/>
    </g>
    <g id="xtick_40">
     <g id="line2d_56"/>
    </g>
    <g id="xtick_41">
     <g id="line2d_57"/>
    </g>
    <g id="xtick_42">
     <g id="line2d_58"/>
    </g>
    <g id="xtick_43">
     <g id="line2d_59"/>
    </g>
    <g id="xtick_44">
     <g id="line2d_60"/>
    </g>
    <g id="xtick_45">
     <g id="line2d_61"/>
    </g>
    <g id="xtick_46">
     <g id="line2d_62"/>
    </g>
    <g id="xtick_47">
     <g id="line2d_63"/>
    </g>
    <g id="xtick_48">
     <g id="line2d_64"/>
    </g>
    <g id="xtick_49">
     <g id="line2d_65"/>
    </g>
    <g id="xtick_50">
     <g id="line2d_66"/>
    </g>
    <g id="xtick_51">
     <g id="line2d_67"/>
    </g>
    <g id="xtick_52">
     <g id="line2d_68"/>
    </g>
    <g id="xtick_53">
     <g id="line2d_69"/>
    </g>
    <g id="xtick_54">
     <g id="line2d_70"/>
    </g>
    <g id="xtick_55">
     <g id="line2d_71"/>
    </g>
    <g id="xtick_56">
     <g id="line2d_72"/>
    </g>
    <g id="xtick_57">
     <g id="line2d_73"/>
    </g>
    <g id="xtick_58">
     <g id="line2d_74"/>
    </g>
    <g id="xtick_59">
     <g id="line2d_75"/>
    </g>
    <g id="xtick_60">
     <g id="line2d_76"/>
    </g>
    <g id="xtick_61">
     <g id="line2d_77"/>
    </g>
    <g id="xtick_62">
     <g id="line2d_78"/>
    </g>
    <g id="xtick_63">
     <g id="line2d_79"/>
    </g>
    <g id="xtick_64">
     <g id="line2d_80"/>
    </g>
    <g id="xtick_65">
     <g id="line2d_81"/>
    </g>
    <g id="xtick_66">
     <g id="line2d_82"/>
    </g>
    <g id="xtick_67">
     <g id="line2d_83"/>
    </g>
    <g id="xtick_68">
     <g id="line2d_84"/>
    </g>
    <g id="xtick_69">
     <g id="line2d_85"/>
    </g>
    <g id="xtick_70">
     <g id="line2d_86"/>
    </g>
    <g id="xtick_71">
     <g id="line2d_87"/>
    </g>
    <g id="xtick_72">
     <g id="line2d_88"/>
    </g>
    <g id="xtick_73">
     <g id="line2d_89"/>
    </g>
    <g id="xtick_74">
     <g id="line2d_90"/>
    </g>
    <g id="xtick_75">
     <g id="line2d_91"/>
    </g>
    <g id="xtick_76">
     <g id="line2d_92"/>
    </g>
    <g id="xtick_77">
     <g id="line2d_93"/>
    </g>
    <g id="xtick_78">
     <g id="line2d_94"/>
    </g>
    <g id="xtick_79">
     <g id="line2d_95"/>
    </g>
    <g id="xtick_80">
     <g id="line2d_96"/>
    </g>
    <g id="xtick_81">
     <g id="line2d_97"/>
    </g>
    <g id="xtick_82">
     <g id="line2d_98"/>
    </g>
    <g id="text_17">
     <!-- Test Case -->
     <g style="fill: #262626" transform="translate(411.717656 557.253125) scale(0.18 -0.18)">
      <defs>
       <path id="LiberationSans-Bold-54" d="M 2416 3691 
L 2416 0 
L 1494 0 
L 1494 3691 
L 72 3691 
L 72 4403 
L 3841 4403 
L 3841 3691 
L 2416 3691 
z
" transform="scale(0.015625)"/>
       <path id="LiberationSans-Bold-65" d="M 1831 -63 
Q 1466 -63 1173 45 
Q 881 153 675 373 
Q 469 594 359 926 
Q 250 1259 250 1706 
Q 250 2191 379 2522 
Q 509 2853 729 3058 
Q 950 3263 1237 3353 
Q 1525 3444 1844 3444 
Q 2244 3444 2526 3305 
Q 2809 3166 2990 2916 
Q 3172 2666 3256 2317 
Q 3341 1969 3341 1547 
L 3341 1522 
L 1172 1522 
Q 1172 1309 1209 1126 
Q 1247 944 1331 811 
Q 1416 678 1550 601 
Q 1684 525 1875 525 
Q 2106 525 2253 623 
Q 2400 722 2463 928 
L 3291 856 
Q 3234 713 3132 550 
Q 3031 388 2862 252 
Q 2694 116 2442 26 
Q 2191 -63 1831 -63 
z
M 1831 2891 
Q 1697 2891 1580 2845 
Q 1463 2800 1377 2701 
Q 1291 2603 1237 2447 
Q 1184 2291 1178 2072 
L 2491 2072 
Q 2466 2481 2294 2686 
Q 2122 2891 1831 2891 
z
" transform="scale(0.015625)"/>
       <path id="LiberationSans-Bold-73" d="M 3297 988 
Q 3297 744 3195 550 
Q 3094 356 2900 220 
Q 2706 84 2425 10 
Q 2144 -63 1784 -63 
Q 1463 -63 1203 -16 
Q 944 31 748 139 
Q 553 247 422 419 
Q 291 591 225 844 
L 997 959 
Q 1034 819 1100 731 
Q 1166 644 1262 597 
Q 1359 550 1489 534 
Q 1619 519 1784 519 
Q 1934 519 2064 536 
Q 2194 553 2289 595 
Q 2384 638 2437 714 
Q 2491 791 2491 906 
Q 2491 1038 2414 1114 
Q 2338 1191 2205 1239 
Q 2072 1288 1892 1323 
Q 1713 1359 1509 1406 
Q 1297 1453 1090 1518 
Q 884 1584 721 1696 
Q 559 1809 459 1982 
Q 359 2156 359 2422 
Q 359 2663 453 2852 
Q 547 3041 728 3173 
Q 909 3306 1176 3376 
Q 1444 3447 1791 3447 
Q 2066 3447 2303 3395 
Q 2541 3344 2728 3233 
Q 2916 3122 3042 2950 
Q 3169 2778 3219 2534 
L 2441 2453 
Q 2419 2575 2362 2654 
Q 2306 2734 2223 2781 
Q 2141 2828 2031 2845 
Q 1922 2863 1791 2863 
Q 1478 2863 1322 2783 
Q 1166 2703 1166 2516 
Q 1166 2400 1230 2331 
Q 1294 2263 1411 2217 
Q 1528 2172 1689 2139 
Q 1850 2106 2041 2059 
Q 2275 2009 2501 1942 
Q 2728 1875 2904 1758 
Q 3081 1641 3189 1456 
Q 3297 1272 3297 988 
z
" transform="scale(0.015625)"/>
       <path id="LiberationSans-Bold-74" d="M 1313 -56 
Q 925 -56 715 155 
Q 506 366 506 794 
L 506 2788 
L 78 2788 
L 78 3381 
L 550 3381 
L 825 4175 
L 1375 4175 
L 1375 3381 
L 2016 3381 
L 2016 2788 
L 1375 2788 
L 1375 1031 
Q 1375 784 1469 667 
Q 1563 550 1759 550 
Q 1841 550 1906 562 
Q 1972 575 2053 594 
L 2053 50 
Q 1891 -3 1709 -29 
Q 1528 -56 1313 -56 
z
" transform="scale(0.015625)"/>
       <path id="LiberationSans-Bold-20" transform="scale(0.015625)"/>
       <path id="LiberationSans-Bold-43" d="M 2484 663 
Q 2744 663 2933 736 
Q 3122 809 3261 928 
Q 3400 1047 3492 1197 
Q 3584 1347 3644 1500 
L 4447 1197 
Q 4350 959 4194 731 
Q 4038 503 3803 328 
Q 3569 153 3245 45 
Q 2922 -63 2484 -63 
Q 1913 -63 1494 107 
Q 1075 278 801 583 
Q 528 888 395 1306 
Q 263 1725 263 2222 
Q 263 2738 395 3153 
Q 528 3569 797 3861 
Q 1066 4153 1477 4311 
Q 1888 4469 2444 4469 
Q 2875 4469 3198 4378 
Q 3522 4288 3758 4123 
Q 3994 3959 4148 3736 
Q 4303 3513 4391 3244 
L 3578 3022 
Q 3534 3163 3443 3292 
Q 3353 3422 3214 3522 
Q 3075 3622 2887 3683 
Q 2700 3744 2463 3744 
Q 2128 3744 1887 3636 
Q 1647 3528 1492 3328 
Q 1338 3128 1264 2848 
Q 1191 2569 1191 2222 
Q 1191 1878 1264 1592 
Q 1338 1306 1494 1100 
Q 1650 894 1895 778 
Q 2141 663 2484 663 
z
" transform="scale(0.015625)"/>
       <path id="LiberationSans-Bold-61" d="M 1228 -63 
Q 984 -63 792 4 
Q 600 72 465 201 
Q 331 331 259 522 
Q 188 713 188 956 
Q 188 1256 292 1461 
Q 397 1666 578 1792 
Q 759 1919 1003 1976 
Q 1247 2034 1522 2038 
L 2250 2050 
L 2250 2222 
Q 2250 2406 2217 2529 
Q 2184 2653 2121 2731 
Q 2059 2809 1967 2842 
Q 1875 2875 1756 2875 
Q 1647 2875 1561 2853 
Q 1475 2831 1412 2776 
Q 1350 2722 1311 2630 
Q 1272 2538 1256 2397 
L 341 2441 
Q 378 2663 478 2845 
Q 578 3028 754 3162 
Q 931 3297 1189 3370 
Q 1447 3444 1794 3444 
Q 2109 3444 2356 3366 
Q 2603 3288 2775 3133 
Q 2947 2978 3037 2753 
Q 3128 2528 3128 2231 
L 3128 1000 
Q 3128 881 3139 787 
Q 3150 694 3179 630 
Q 3209 566 3264 533 
Q 3319 500 3406 500 
Q 3506 500 3600 519 
L 3600 44 
Q 3522 25 3459 9 
Q 3397 -6 3334 -15 
Q 3272 -25 3201 -31 
Q 3131 -38 3038 -38 
Q 2706 -38 2548 125 
Q 2391 288 2359 603 
L 2341 603 
Q 2166 288 1892 112 
Q 1619 -63 1228 -63 
z
M 2250 1566 
L 1800 1559 
Q 1659 1553 1532 1536 
Q 1406 1519 1311 1464 
Q 1216 1409 1159 1306 
Q 1103 1203 1103 1025 
Q 1103 784 1214 667 
Q 1325 550 1509 550 
Q 1678 550 1815 622 
Q 1953 694 2048 811 
Q 2144 928 2197 1081 
Q 2250 1234 2250 1394 
L 2250 1566 
z
" transform="scale(0.015625)"/>
      </defs>
      <use xlink:href="#LiberationSans-Bold-54"/>
      <use xlink:href="#LiberationSans-Bold-65" transform="translate(53.708984 0)"/>
      <use xlink:href="#LiberationSans-Bold-73" transform="translate(109.324219 0)"/>
      <use xlink:href="#LiberationSans-Bold-74" transform="translate(164.939453 0)"/>
      <use xlink:href="#LiberationSans-Bold-20" transform="translate(198.240234 0)"/>
      <use xlink:href="#LiberationSans-Bold-43" transform="translate(226.023438 0)"/>
      <use xlink:href="#LiberationSans-Bold-61" transform="translate(298.240234 0)"/>
      <use xlink:href="#LiberationSans-Bold-73" transform="translate(353.855469 0)"/>
      <use xlink:href="#LiberationSans-Bold-65" transform="translate(409.470703 0)"/>
     </g>
    </g>
   </g>
   <g id="matplotlib.axis_2">
    <g id="ytick_1">
     <g id="line2d_99">
      <path d="M 58.171875 521.79375 
L 848.971875 521.79375 
" clip-path="url(#p0183eca7a3)" style="fill: none; stroke: #cccccc; stroke-opacity: 0.3; stroke-width: 0.8; stroke-linecap: round"/>
     </g>
     <g id="line2d_100"/>
     <g id="text_18">
      <!-- 0 -->
      <g style="fill: #262626" transform="translate(45.774375 527.59125) scale(0.16 -0.16)">
       <use xlink:href="#LiberationSans-30"/>
      </g>
     </g>
    </g>
    <g id="ytick_2">
     <g id="line2d_101">
      <path d="M 58.171875 425.77375 
L 848.971875 425.77375 
" clip-path="url(#p0183eca7a3)" style="fill: none; stroke: #cccccc; stroke-opacity: 0.3; stroke-width: 0.8; stroke-linecap: round"/>
     </g>
     <g id="line2d_102"/>
     <g id="text_19">
      <!-- 20 -->
      <g style="fill: #262626" transform="translate(36.876875 431.57125) scale(0.16 -0.16)">
       <use xlink:href="#LiberationSans-32"/>
       <use xlink:href="#LiberationSans-30" transform="translate(55.615234 0)"/>
      </g>
     </g>
    </g>
    <g id="ytick_3">
     <g id="line2d_103">
      <path d="M 58.171875 329.75375 
L 848.971875 329.75375 
" clip-path="url(#p0183eca7a3)" style="fill: none; stroke: #cccccc; stroke-opacity: 0.3; stroke-width: 0.8; stroke-linecap: round"/>
     </g>
     <g id="line2d_104"/>
     <g id="text_20">
      <!-- 40 -->
      <g style="fill: #262626" transform="translate(36.876875 335.55125) scale(0.16 -0.16)">
       <use xlink:href="#LiberationSans-34"/>
       <use xlink:href="#LiberationSans-30" transform="translate(55.615234 0)"/>
      </g>
     </g>
    </g>
    <g id="ytick_4">
     <g id="line2d_105">
      <path d="M 58.171875 233.73375 
L 848.971875 233.73375 
" clip-path="url(#p0183eca7a3)" style="fill: none; stroke: #cccccc; stroke-opacity: 0.3; stroke-width: 0.8; stroke-linecap: round"/>
     </g>
     <g id="line2d_106"/>
     <g id="text_21">
      <!-- 60 -->
      <g style="fill: #262626" transform="translate(36.876875 239.53125) scale(0.16 -0.16)">
       <use xlink:href="#LiberationSans-36"/>
       <use xlink:href="#LiberationSans-30" transform="translate(55.615234 0)"/>
      </g>
     </g>
    </g>
    <g id="ytick_5">
     <g id="line2d_107">
      <path d="M 58.171875 137.71375 
L 848.971875 137.71375 
" clip-path="url(#p0183eca7a3)" style="fill: none; stroke: #cccccc; stroke-opacity: 0.3; stroke-width: 0.8; stroke-linecap: round"/>
     </g>
     <g id="line2d_108"/>
     <g id="text_22">
      <!-- 80 -->
      <g style="fill: #262626" transform="translate(36.876875 143.51125) scale(0.16 -0.16)">
       <use xlink:href="#LiberationSans-38"/>
       <use xlink:href="#LiberationSans-30" transform="translate(55.615234 0)"/>
      </g>
     </g>
    </g>
    <g id="ytick_6">
     <g id="line2d_109">
      <path d="M 58.171875 41.69375 
L 848.971875 41.69375 
" clip-path="url(#p0183eca7a3)" style="fill: none; stroke: #cccccc; stroke-opacity: 0.3; stroke-width: 0.8; stroke-linecap: round"/>
     </g>
     <g id="line2d_110"/>
     <g id="text_23">
      <!-- 100 -->
      <g style="fill: #262626" transform="translate(27.979375 47.49125) scale(0.16 -0.16)">
       <use xlink:href="#LiberationSans-31"/>
       <use xlink:href="#LiberationSans-30" transform="translate(55.615234 0)"/>
       <use xlink:href="#LiberationSans-30" transform="translate(111.230469 0)"/>
      </g>
     </g>
    </g>
    <g id="ytick_7">
     <g id="line2d_111"/>
    </g>
    <g id="ytick_8">
     <g id="line2d_112"/>
    </g>
    <g id="ytick_9">
     <g id="line2d_113"/>
    </g>
    <g id="ytick_10">
     <g id="line2d_114"/>
    </g>
    <g id="ytick_11">
     <g id="line2d_115"/>
    </g>
    <g id="ytick_12">
     <g id="line2d_116"/>
    </g>
    <g id="ytick_13">
     <g id="line2d_117"/>
    </g>
    <g id="ytick_14">
     <g id="line2d_118"/>
    </g>
    <g id="ytick_15">
     <g id="line2d_119"/>
    </g>
    <g id="ytick_16">
     <g id="line2d_120"/>
    </g>
    <g id="ytick_17">
     <g id="line2d_121"/>
    </g>
    <g id="ytick_18">
     <g id="line2d_122"/>
    </g>
    <g id="ytick_19">
     <g id="line2d_123"/>
    </g>
    <g id="ytick_20">
     <g id="line2d_124"/>
    </g>
    <g id="ytick_21">
     <g id="line2d_125"/>
    </g>
    <g id="text_24">
     <!-- Time Fraction (%) -->
     <g style="fill: #262626" transform="translate(20.244375 357.089219) rotate(-90) scale(0.18 -0.18)">
      <defs>
       <path id="LiberationSans-Bold-69" d="M 447 3991 
L 447 4638 
L 1325 4638 
L 1325 3991 
L 447 3991 
z
M 447 0 
L 447 3381 
L 1325 3381 
L 1325 0 
L 447 0 
z
" transform="scale(0.015625)"/>
       <path id="LiberationSans-Bold-6d" d="M 2438 0 
L 2438 1897 
Q 2438 2094 2411 2258 
Q 2384 2422 2323 2539 
Q 2263 2656 2164 2722 
Q 2066 2788 1925 2788 
Q 1791 2788 1681 2717 
Q 1572 2647 1492 2517 
Q 1413 2388 1369 2208 
Q 1325 2028 1325 1813 
L 1325 0 
L 447 0 
L 447 2625 
Q 447 2734 445 2850 
Q 444 2966 439 3070 
Q 434 3175 431 3258 
Q 428 3341 422 3381 
L 1259 3381 
Q 1266 3344 1272 3261 
Q 1278 3178 1284 3078 
Q 1291 2978 1295 2878 
Q 1300 2778 1300 2709 
L 1313 2709 
Q 1475 3097 1717 3272 
Q 1959 3447 2297 3447 
Q 2684 3447 2920 3258 
Q 3156 3069 3238 2709 
L 3256 2709 
Q 3347 2919 3451 3059 
Q 3556 3200 3682 3286 
Q 3809 3372 3957 3409 
Q 4106 3447 4281 3447 
Q 4559 3447 4751 3347 
Q 4944 3247 5064 3072 
Q 5184 2897 5239 2659 
Q 5294 2422 5294 2147 
L 5294 0 
L 4422 0 
L 4422 1897 
Q 4422 2094 4395 2258 
Q 4369 2422 4308 2539 
Q 4247 2656 4148 2722 
Q 4050 2788 3909 2788 
Q 3778 2788 3670 2720 
Q 3563 2653 3483 2529 
Q 3403 2406 3359 2234 
Q 3316 2063 3309 1853 
L 3309 0 
L 2438 0 
z
" transform="scale(0.015625)"/>
       <path id="LiberationSans-Bold-46" d="M 1350 3691 
L 1350 2328 
L 3603 2328 
L 3603 1616 
L 1350 1616 
L 1350 0 
L 428 0 
L 428 4403 
L 3675 4403 
L 3675 3691 
L 1350 3691 
z
" transform="scale(0.015625)"/>
       <path id="LiberationSans-Bold-72" d="M 447 0 
L 447 2588 
Q 447 2697 445 2819 
Q 444 2941 439 3052 
Q 434 3163 431 3252 
Q 428 3341 422 3381 
L 1259 3381 
Q 1266 3344 1272 3251 
Q 1278 3159 1284 3050 
Q 1291 2941 1295 2833 
Q 1300 2725 1300 2659 
L 1313 2659 
Q 1378 2844 1443 2989 
Q 1509 3134 1598 3236 
Q 1688 3338 1813 3392 
Q 1938 3447 2122 3447 
Q 2200 3447 2276 3433 
Q 2353 3419 2394 3400 
L 2394 2666 
Q 2309 2684 2223 2698 
Q 2138 2713 2019 2713 
Q 1691 2713 1508 2447 
Q 1325 2181 1325 1659 
L 1325 0 
L 447 0 
z
" transform="scale(0.015625)"/>
       <path id="LiberationSans-Bold-63" d="M 1856 -63 
Q 1453 -63 1151 62 
Q 850 188 650 416 
Q 450 644 350 964 
Q 250 1284 250 1672 
Q 250 2094 359 2423 
Q 469 2753 675 2979 
Q 881 3206 1182 3325 
Q 1484 3444 1869 3444 
Q 2197 3444 2451 3356 
Q 2706 3269 2890 3117 
Q 3075 2966 3189 2759 
Q 3303 2553 3347 2316 
L 2463 2272 
Q 2425 2531 2275 2686 
Q 2125 2841 1850 2841 
Q 1497 2841 1334 2550 
Q 1172 2259 1172 1706 
Q 1172 538 1863 538 
Q 2113 538 2281 695 
Q 2450 853 2491 1166 
L 3372 1125 
Q 3341 891 3230 677 
Q 3119 463 2930 298 
Q 2741 134 2472 35 
Q 2203 -63 1856 -63 
z
" transform="scale(0.015625)"/>
       <path id="LiberationSans-Bold-6f" d="M 3659 1694 
Q 3659 1306 3551 984 
Q 3444 663 3228 430 
Q 3013 197 2691 67 
Q 2369 -63 1941 -63 
Q 1528 -63 1212 65 
Q 897 194 683 425 
Q 469 656 359 979 
Q 250 1303 250 1694 
Q 250 2072 354 2392 
Q 459 2713 671 2947 
Q 884 3181 1206 3312 
Q 1528 3444 1959 3444 
Q 2416 3444 2737 3312 
Q 3059 3181 3264 2948 
Q 3469 2716 3564 2395 
Q 3659 2075 3659 1694 
z
M 2741 1694 
Q 2741 2297 2544 2569 
Q 2347 2841 1972 2841 
Q 1584 2841 1378 2566 
Q 1172 2291 1172 1694 
Q 1172 1391 1226 1172 
Q 1281 953 1381 812 
Q 1481 672 1622 605 
Q 1763 538 1931 538 
Q 2125 538 2276 605 
Q 2428 672 2531 812 
Q 2634 953 2687 1172 
Q 2741 1391 2741 1694 
z
" transform="scale(0.015625)"/>
       <path id="LiberationSans-Bold-6e" d="M 2638 0 
L 2638 1897 
Q 2638 2094 2606 2258 
Q 2575 2422 2503 2539 
Q 2431 2656 2315 2722 
Q 2200 2788 2034 2788 
Q 1875 2788 1745 2717 
Q 1616 2647 1522 2517 
Q 1428 2388 1376 2208 
Q 1325 2028 1325 1813 
L 1325 0 
L 447 0 
L 447 2625 
Q 447 2734 445 2850 
Q 444 2966 439 3070 
Q 434 3175 431 3258 
Q 428 3341 422 3381 
L 1259 3381 
Q 1266 3344 1272 3261 
Q 1278 3178 1284 3078 
Q 1291 2978 1295 2878 
Q 1300 2778 1300 2709 
L 1313 2709 
Q 1491 3097 1759 3272 
Q 2028 3447 2400 3447 
Q 2706 3447 2917 3347 
Q 3128 3247 3261 3072 
Q 3394 2897 3453 2659 
Q 3513 2422 3513 2147 
L 3513 0 
L 2638 0 
z
" transform="scale(0.015625)"/>
       <path id="LiberationSans-Bold-28" d="M 1247 -1328 
Q 1006 -981 831 -637 
Q 656 -294 542 68 
Q 428 431 373 823 
Q 319 1216 319 1659 
Q 319 2106 373 2495 
Q 428 2884 542 3245 
Q 656 3606 831 3948 
Q 1006 4291 1247 4638 
L 2125 4638 
Q 1875 4275 1697 3922 
Q 1519 3569 1405 3206 
Q 1291 2844 1237 2461 
Q 1184 2078 1184 1656 
Q 1184 1231 1237 848 
Q 1291 466 1405 103 
Q 1519 -259 1697 -611 
Q 1875 -963 2125 -1328 
L 1247 -1328 
z
" transform="scale(0.015625)"/>
       <path id="LiberationSans-Bold-25" d="M 5522 1350 
Q 5522 959 5434 690 
Q 5347 422 5197 258 
Q 5047 94 4845 22 
Q 4644 -50 4416 -50 
Q 4181 -50 3979 22 
Q 3778 94 3629 258 
Q 3481 422 3395 690 
Q 3309 959 3309 1350 
Q 3309 1763 3395 2033 
Q 3481 2303 3631 2464 
Q 3781 2625 3986 2689 
Q 4191 2753 4428 2753 
Q 4653 2753 4853 2689 
Q 5053 2625 5201 2464 
Q 5350 2303 5436 2033 
Q 5522 1763 5522 1350 
z
M 1725 0 
L 1081 0 
L 3956 4403 
L 4609 4403 
L 1725 0 
z
M 1275 4453 
Q 1500 4453 1700 4389 
Q 1900 4325 2050 4165 
Q 2200 4006 2287 3736 
Q 2375 3466 2375 3053 
Q 2375 2663 2287 2394 
Q 2200 2125 2048 1959 
Q 1897 1794 1694 1722 
Q 1491 1650 1259 1650 
Q 1031 1650 829 1722 
Q 628 1794 479 1958 
Q 331 2122 245 2390 
Q 159 2659 159 3053 
Q 159 3466 243 3736 
Q 328 4006 478 4165 
Q 628 4325 833 4389 
Q 1038 4453 1275 4453 
z
M 4850 1350 
Q 4850 1622 4823 1800 
Q 4797 1978 4744 2083 
Q 4691 2188 4612 2230 
Q 4534 2272 4428 2272 
Q 4313 2272 4230 2230 
Q 4147 2188 4094 2081 
Q 4041 1975 4014 1797 
Q 3988 1619 3988 1350 
Q 3988 1088 4013 914 
Q 4038 741 4092 634 
Q 4147 528 4228 484 
Q 4309 441 4422 441 
Q 4525 441 4604 484 
Q 4684 528 4739 633 
Q 4794 738 4822 913 
Q 4850 1088 4850 1350 
z
M 1697 3053 
Q 1697 3322 1670 3498 
Q 1644 3675 1591 3779 
Q 1538 3884 1459 3926 
Q 1381 3969 1275 3969 
Q 1159 3969 1075 3925 
Q 991 3881 937 3776 
Q 884 3672 857 3495 
Q 831 3319 831 3053 
Q 831 2791 857 2616 
Q 884 2441 939 2334 
Q 994 2228 1075 2183 
Q 1156 2138 1269 2138 
Q 1375 2138 1454 2181 
Q 1534 2225 1589 2331 
Q 1644 2438 1670 2614 
Q 1697 2791 1697 3053 
z
" transform="scale(0.015625)"/>
       <path id="LiberationSans-Bold-29" d="M 6 -1328 
Q 256 -963 434 -611 
Q 613 -259 727 103 
Q 841 466 894 848 
Q 947 1231 947 1656 
Q 947 2078 894 2461 
Q 841 2844 727 3206 
Q 613 3569 434 3922 
Q 256 4275 6 4638 
L 884 4638 
Q 1125 4291 1300 3948 
Q 1475 3606 1589 3245 
Q 1703 2884 1758 2495 
Q 1813 2106 1813 1659 
Q 1813 1216 1758 823 
Q 1703 431 1589 68 
Q 1475 -294 1300 -637 
Q 1125 -981 884 -1328 
L 6 -1328 
z
" transform="scale(0.015625)"/>
      </defs>
      <use xlink:href="#LiberationSans-Bold-54"/>
      <use xlink:href="#LiberationSans-Bold-69" transform="translate(59.333984 0)"/>
      <use xlink:href="#LiberationSans-Bold-6d" transform="translate(87.117188 0)"/>
      <use xlink:href="#LiberationSans-Bold-65" transform="translate(176.033203 0)"/>
      <use xlink:href="#LiberationSans-Bold-20" transform="translate(231.648438 0)"/>
      <use xlink:href="#LiberationSans-Bold-46" transform="translate(259.431641 0)"/>
      <use xlink:href="#LiberationSans-Bold-72" transform="translate(320.515625 0)"/>
      <use xlink:href="#LiberationSans-Bold-61" transform="translate(359.431641 0)"/>
      <use xlink:href="#LiberationSans-Bold-63" transform="translate(415.046875 0)"/>
      <use xlink:href="#LiberationSans-Bold-74" transform="translate(470.662109 0)"/>
      <use xlink:href="#LiberationSans-Bold-69" transform="translate(503.962891 0)"/>
      <use xlink:href="#LiberationSans-Bold-6f" transform="translate(531.746094 0)"/>
      <use xlink:href="#LiberationSans-Bold-6e" transform="translate(592.830078 0)"/>
      <use xlink:href="#LiberationSans-Bold-20" transform="translate(653.914062 0)"/>
      <use xlink:href="#LiberationSans-Bold-28" transform="translate(681.697266 0)"/>
      <use xlink:href="#LiberationSans-Bold-25" transform="translate(714.998047 0)"/>
      <use xlink:href="#LiberationSans-Bold-29" transform="translate(803.914062 0)"/>
     </g>
    </g>
   </g>
   <g id="line2d_126">
    <path d="M 94.11733 272.14175 
L 142.044602 272.511058 
L 189.971875 267.623162 
L 237.899148 272.14175 
L 285.82642 394.244795 
L 333.753693 395.001762 
L 381.680966 395.380865 
L 429.608239 394.624405 
L 477.535511 446.080623 
L 525.462784 445.594392 
L 573.390057 445.313732 
L 621.31733 444.804741 
L 669.244602 505.616842 
L 717.171875 505.453435 
L 765.099148 505.5625 
L 813.02642 506.071338 
" clip-path="url(#p0183eca7a3)" style="fill: none; stroke: #0000ff; stroke-opacity: 0.8; stroke-width: 3; stroke-linecap: round"/>
    <defs>
     <path id="m6904d929e4" d="M 0 4 
C 1.060812 4 2.078319 3.578535 2.828427 2.828427 
C 3.578535 2.078319 4 1.060812 4 0 
C 4 -1.060812 3.578535 -2.078319 2.828427 -2.828427 
C 2.078319 -3.578535 1.060812 -4 0 -4 
C -1.060812 -4 -2.078319 -3.578535 -2.828427 -2.828427 
C -3.578535 -2.078319 -4 -1.060812 -4 0 
C -4 1.060812 -3.578535 2.078319 -2.828427 2.828427 
C -2.078319 3.578535 -1.060812 4 0 4 
z
" style="stroke: #0000ff; stroke-opacity: 0.8"/>
    </defs>
    <g clip-path="url(#p0183eca7a3)">
     <use xlink:href="#m6904d929e4" x="94.11733" y="272.14175" style="fill: #0000ff; fill-opacity: 0.8; stroke: #0000ff; stroke-opacity: 0.8"/>
     <use xlink:href="#m6904d929e4" x="142.044602" y="272.511058" style="fill: #0000ff; fill-opacity: 0.8; stroke: #0000ff; stroke-opacity: 0.8"/>
     <use xlink:href="#m6904d929e4" x="189.971875" y="267.623162" style="fill: #0000ff; fill-opacity: 0.8; stroke: #0000ff; stroke-opacity: 0.8"/>
     <use xlink:href="#m6904d929e4" x="237.899148" y="272.14175" style="fill: #0000ff; fill-opacity: 0.8; stroke: #0000ff; stroke-opacity: 0.8"/>
     <use xlink:href="#m6904d929e4" x="285.82642" y="394.244795" style="fill: #0000ff; fill-opacity: 0.8; stroke: #0000ff; stroke-opacity: 0.8"/>
     <use xlink:href="#m6904d929e4" x="333.753693" y="395.001762" style="fill: #0000ff; fill-opacity: 0.8; stroke: #0000ff; stroke-opacity: 0.8"/>
     <use xlink:href="#m6904d929e4" x="381.680966" y="395.380865" style="fill: #0000ff; fill-opacity: 0.8; stroke: #0000ff; stroke-opacity: 0.8"/>
     <use xlink:href="#m6904d929e4" x="429.608239" y="394.624405" style="fill: #0000ff; fill-opacity: 0.8; stroke: #0000ff; stroke-opacity: 0.8"/>
     <use xlink:href="#m6904d929e4" x="477.535511" y="446.080623" style="fill: #0000ff; fill-opacity: 0.8; stroke: #0000ff; stroke-opacity: 0.8"/>
     <use xlink:href="#m6904d929e4" x="525.462784" y="445.594392" style="fill: #0000ff; fill-opacity: 0.8; stroke: #0000ff; stroke-opacity: 0.8"/>
     <use xlink:href="#m6904d929e4" x="573.390057" y="445.313732" style="fill: #0000ff; fill-opacity: 0.8; stroke: #0000ff; stroke-opacity: 0.8"/>
     <use xlink:href="#m6904d929e4" x="621.31733" y="444.804741" style="fill: #0000ff; fill-opacity: 0.8; stroke: #0000ff; stroke-opacity: 0.8"/>
     <use xlink:href="#m6904d929e4" x="669.244602" y="505.616842" style="fill: #0000ff; fill-opacity: 0.8; stroke: #0000ff; stroke-opacity: 0.8"/>
     <use xlink:href="#m6904d929e4" x="717.171875" y="505.453435" style="fill: #0000ff; fill-opacity: 0.8; stroke: #0000ff; stroke-opacity: 0.8"/>
     <use xlink:href="#m6904d929e4" x="765.099148" y="505.5625" style="fill: #0000ff; fill-opacity: 0.8; stroke: #0000ff; stroke-opacity: 0.8"/>
     <use xlink:href="#m6904d929e4" x="813.02642" y="506.071338" style="fill: #0000ff; fill-opacity: 0.8; stroke: #0000ff; stroke-opacity: 0.8"/>
    </g>
   </g>
   <g id="line2d_127">
    <path d="M 94.11733 291.34575 
L 142.044602 290.976442 
L 189.971875 295.864338 
L 237.899148 291.34575 
L 285.82642 169.242705 
L 333.753693 168.485738 
L 381.680966 168.106635 
L 429.608239 168.863095 
L 477.535511 117.406877 
L 525.462784 117.893108 
L 573.390057 118.173768 
L 621.31733 118.682759 
L 669.244602 57.870658 
L 717.171875 58.034065 
L 765.099148 57.925 
L 813.02642 57.416162 
" clip-path="url(#p0183eca7a3)" style="fill: none; stroke: #ff0000; stroke-opacity: 0.8; stroke-width: 3; stroke-linecap: round"/>
    <defs>
     <path id="mc0f51dbd18" d="M -4 4 
L 4 4 
L 4 -4 
L -4 -4 
z
" style="stroke: #ff0000; stroke-opacity: 0.8; stroke-linejoin: miter"/>
    </defs>
    <g clip-path="url(#p0183eca7a3)">
     <use xlink:href="#mc0f51dbd18" x="94.11733" y="291.34575" style="fill: #ff0000; fill-opacity: 0.8; stroke: #ff0000; stroke-opacity: 0.8; stroke-linejoin: miter"/>
     <use xlink:href="#mc0f51dbd18" x="142.044602" y="290.976442" style="fill: #ff0000; fill-opacity: 0.8; stroke: #ff0000; stroke-opacity: 0.8; stroke-linejoin: miter"/>
     <use xlink:href="#mc0f51dbd18" x="189.971875" y="295.864338" style="fill: #ff0000; fill-opacity: 0.8; stroke: #ff0000; stroke-opacity: 0.8; stroke-linejoin: miter"/>
     <use xlink:href="#mc0f51dbd18" x="237.899148" y="291.34575" style="fill: #ff0000; fill-opacity: 0.8; stroke: #ff0000; stroke-opacity: 0.8; stroke-linejoin: miter"/>
     <use xlink:href="#mc0f51dbd18" x="285.82642" y="169.242705" style="fill: #ff0000; fill-opacity: 0.8; stroke: #ff0000; stroke-opacity: 0.8; stroke-linejoin: miter"/>
     <use xlink:href="#mc0f51dbd18" x="333.753693" y="168.485738" style="fill: #ff0000; fill-opacity: 0.8; stroke: #ff0000; stroke-opacity: 0.8; stroke-linejoin: miter"/>
     <use xlink:href="#mc0f51dbd18" x="381.680966" y="168.106635" style="fill: #ff0000; fill-opacity: 0.8; stroke: #ff0000; stroke-opacity: 0.8; stroke-linejoin: miter"/>
     <use xlink:href="#mc0f51dbd18" x="429.608239" y="168.863095" style="fill: #ff0000; fill-opacity: 0.8; stroke: #ff0000; stroke-opacity: 0.8; stroke-linejoin: miter"/>
     <use xlink:href="#mc0f51dbd18" x="477.535511" y="117.406877" style="fill: #ff0000; fill-opacity: 0.8; stroke: #ff0000; stroke-opacity: 0.8; stroke-linejoin: miter"/>
     <use xlink:href="#mc0f51dbd18" x="525.462784" y="117.893108" style="fill: #ff0000; fill-opacity: 0.8; stroke: #ff0000; stroke-opacity: 0.8; stroke-linejoin: miter"/>
     <use xlink:href="#mc0f51dbd18" x="573.390057" y="118.173768" style="fill: #ff0000; fill-opacity: 0.8; stroke: #ff0000; stroke-opacity: 0.8; stroke-linejoin: miter"/>
     <use xlink:href="#mc0f51dbd18" x="621.31733" y="118.682759" style="fill: #ff0000; fill-opacity: 0.8; stroke: #ff0000; stroke-opacity: 0.8; stroke-linejoin: miter"/>
     <use xlink:href="#mc0f51dbd18" x="669.244602" y="57.870658" style="fill: #ff0000; fill-opacity: 0.8; stroke: #ff0000; stroke-opacity: 0.8; stroke-linejoin: miter"/>
     <use xlink:href="#mc0f51dbd18" x="717.171875" y="58.034065" style="fill: #ff0000; fill-opacity: 0.8; stroke: #ff0000; stroke-opacity: 0.8; stroke-linejoin: miter"/>
     <use xlink:href="#mc0f51dbd18" x="765.099148" y="57.925" style="fill: #ff0000; fill-opacity: 0.8; stroke: #ff0000; stroke-opacity: 0.8; stroke-linejoin: miter"/>
     <use xlink:href="#mc0f51dbd18" x="813.02642" y="57.416162" style="fill: #ff0000; fill-opacity: 0.8; stroke: #ff0000; stroke-opacity: 0.8; stroke-linejoin: miter"/>
    </g>
   </g>
   <g id="patch_3">
    <path d="M 58.171875 521.79375 
L 58.171875 41.69375 
" style="fill: none; stroke: #cccccc; stroke-linejoin: miter; stroke-linecap: square"/>
   </g>
   <g id="patch_4">
    <path d="M 848.971875 521.79375 
L 848.971875 41.69375 
" style="fill: none; stroke: #cccccc; stroke-linejoin: miter; stroke-linecap: square"/>
   </g>
   <g id="patch_5">
    <path d="M 58.171875 521.79375 
L 848.971875 521.79375 
" style="fill: none; stroke: #cccccc; stroke-linejoin: miter; stroke-linecap: square"/>
   </g>
   <g id="patch_6">
    <path d="M 58.171875 41.69375 
L 848.971875 41.69375 
" style="fill: none; stroke: #cccccc; stroke-linejoin: miter; stroke-linecap: square"/>
   </g>
   <g id="text_25">
    <!-- Time Fraction Trends Across Test Cases -->
    <g style="fill: #262626" transform="translate(261.467188 21.69375) scale(0.2 -0.2)">
     <defs>
      <path id="LiberationSans-Bold-64" d="M 2638 0 
Q 2631 25 2623 89 
Q 2616 153 2608 234 
Q 2600 316 2595 400 
Q 2591 484 2591 550 
L 2578 550 
Q 2425 222 2151 79 
Q 1878 -63 1497 -63 
Q 1178 -63 945 68 
Q 713 200 561 434 
Q 409 669 336 989 
Q 263 1309 263 1688 
Q 263 2072 339 2394 
Q 416 2716 575 2948 
Q 734 3181 979 3312 
Q 1225 3444 1563 3444 
Q 1728 3444 1881 3409 
Q 2034 3375 2165 3303 
Q 2297 3231 2403 3118 
Q 2509 3006 2584 2847 
L 2591 2847 
Q 2591 2878 2589 2939 
Q 2588 3000 2588 3078 
Q 2588 3156 2586 3240 
Q 2584 3325 2584 3403 
L 2584 4638 
L 3463 4638 
L 3463 738 
Q 3463 491 3472 298 
Q 3481 106 3488 0 
L 2638 0 
z
M 2597 1709 
Q 2597 2044 2534 2264 
Q 2472 2484 2370 2614 
Q 2269 2744 2139 2795 
Q 2009 2847 1875 2847 
Q 1706 2847 1576 2781 
Q 1447 2716 1358 2575 
Q 1269 2434 1223 2215 
Q 1178 1997 1178 1688 
Q 1178 538 1869 538 
Q 2000 538 2131 594 
Q 2263 650 2366 784 
Q 2469 919 2533 1145 
Q 2597 1372 2597 1709 
z
" transform="scale(0.015625)"/>
      <path id="LiberationSans-Bold-41" d="M 3541 0 
L 3150 1125 
L 1472 1125 
L 1081 0 
L 159 0 
L 1766 4403 
L 2853 4403 
L 4453 0 
L 3541 0 
z
M 2509 3084 
Q 2472 3194 2436 3305 
Q 2400 3416 2373 3508 
Q 2347 3600 2330 3659 
Q 2313 3719 2309 3725 
Q 2306 3716 2290 3656 
Q 2275 3597 2248 3506 
Q 2222 3416 2186 3305 
Q 2150 3194 2113 3084 
L 1678 1819 
L 2944 1819 
L 2509 3084 
z
" transform="scale(0.015625)"/>
     </defs>
     <use xlink:href="#LiberationSans-Bold-54"/>
     <use xlink:href="#LiberationSans-Bold-69" transform="translate(59.333984 0)"/>
     <use xlink:href="#LiberationSans-Bold-6d" transform="translate(87.117188 0)"/>
     <use xlink:href="#LiberationSans-Bold-65" transform="translate(176.033203 0)"/>
     <use xlink:href="#LiberationSans-Bold-20" transform="translate(231.648438 0)"/>
     <use xlink:href="#LiberationSans-Bold-46" transform="translate(259.431641 0)"/>
     <use xlink:href="#LiberationSans-Bold-72" transform="translate(320.515625 0)"/>
     <use xlink:href="#LiberationSans-Bold-61" transform="translate(359.431641 0)"/>
     <use xlink:href="#LiberationSans-Bold-63" transform="translate(415.046875 0)"/>
     <use xlink:href="#LiberationSans-Bold-74" transform="translate(470.662109 0)"/>
     <use xlink:href="#LiberationSans-Bold-69" transform="translate(503.962891 0)"/>
     <use xlink:href="#LiberationSans-Bold-6f" transform="translate(531.746094 0)"/>
     <use xlink:href="#LiberationSans-Bold-6e" transform="translate(592.830078 0)"/>
     <use xlink:href="#LiberationSans-Bold-20" transform="translate(653.914062 0)"/>
     <use xlink:href="#LiberationSans-Bold-54" transform="translate(681.697266 0)"/>
     <use xlink:href="#LiberationSans-Bold-72" transform="translate(737.28125 0)"/>
     <use xlink:href="#LiberationSans-Bold-65" transform="translate(776.197266 0)"/>
     <use xlink:href="#LiberationSans-Bold-6e" transform="translate(831.8125 0)"/>
     <use xlink:href="#LiberationSans-Bold-64" transform="translate(892.896484 0)"/>
     <use xlink:href="#LiberationSans-Bold-73" transform="translate(953.980469 0)"/>
     <use xlink:href="#LiberationSans-Bold-20" transform="translate(1009.595703 0)"/>
     <use xlink:href="#LiberationSans-Bold-41" transform="translate(1033.628906 0)"/>
     <use xlink:href="#LiberationSans-Bold-63" transform="translate(1105.845703 0)"/>
     <use xlink:href="#LiberationSans-Bold-72" transform="translate(1161.460938 0)"/>
     <use xlink:href="#LiberationSans-Bold-6f" transform="translate(1200.376953 0)"/>
     <use xlink:href="#LiberationSans-Bold-73" transform="translate(1261.460938 0)"/>
     <use xlink:href="#LiberationSans-Bold-73" transform="translate(1317.076172 0)"/>
     <use xlink:href="#LiberationSans-Bold-20" transform="translate(1372.691406 0)"/>
     <use xlink:href="#LiberationSans-Bold-54" transform="translate(1400.474609 0)"/>
     <use xlink:href="#LiberationSans-Bold-65" transform="translate(1454.183594 0)"/>
     <use xlink:href="#LiberationSans-Bold-73" transform="translate(1509.798828 0)"/>
     <use xlink:href="#LiberationSans-Bold-74" transform="translate(1565.414062 0)"/>
     <use xlink:href="#LiberationSans-Bold-20" transform="translate(1598.714844 0)"/>
     <use xlink:href="#LiberationSans-Bold-43" transform="translate(1626.498047 0)"/>
     <use xlink:href="#LiberationSans-Bold-61" transform="translate(1698.714844 0)"/>
     <use xlink:href="#LiberationSans-Bold-73" transform="translate(1754.330078 0)"/>
     <use xlink:href="#LiberationSans-Bold-65" transform="translate(1809.945312 0)"/>
     <use xlink:href="#LiberationSans-Bold-73" transform="translate(1865.560547 0)"/>
    </g>
   </g>
   <g id="legend_1">
    <g id="line2d_128">
     <path d="M 68.971875 56.99 
L 80.971875 56.99 
L 92.971875 56.99 
" style="fill: none; stroke: #0000ff; stroke-opacity: 0.8; stroke-width: 3; stroke-linecap: round"/>
     <g>
      <use xlink:href="#m6904d929e4" x="80.971875" y="56.99" style="fill: #0000ff; fill-opacity: 0.8; stroke: #0000ff; stroke-opacity: 0.8"/>
     </g>
    </g>
    <g id="text_26">
     <!-- Substitutions -->
     <g style="fill: #262626" transform="translate(102.571875 61.19) scale(0.12 -0.12)">
      <defs>
       <path id="LiberationSans-53" d="M 3975 1216 
Q 3975 606 3498 271 
Q 3022 -63 2156 -63 
Q 547 -63 291 1056 
L 869 1172 
Q 969 775 1294 589 
Q 1619 403 2178 403 
Q 2756 403 3070 601 
Q 3384 800 3384 1184 
Q 3384 1400 3286 1534 
Q 3188 1669 3009 1756 
Q 2831 1844 2584 1903 
Q 2338 1963 2038 2031 
Q 1516 2147 1245 2262 
Q 975 2378 819 2520 
Q 663 2663 580 2853 
Q 497 3044 497 3291 
Q 497 3856 930 4162 
Q 1363 4469 2169 4469 
Q 2919 4469 3316 4239 
Q 3713 4009 3872 3456 
L 3284 3353 
Q 3188 3703 2916 3861 
Q 2644 4019 2163 4019 
Q 1634 4019 1356 3844 
Q 1078 3669 1078 3322 
Q 1078 3119 1186 2986 
Q 1294 2853 1497 2761 
Q 1700 2669 2306 2534 
Q 2509 2488 2711 2439 
Q 2913 2391 3097 2323 
Q 3281 2256 3442 2165 
Q 3603 2075 3722 1944 
Q 3841 1813 3908 1634 
Q 3975 1456 3975 1216 
z
" transform="scale(0.015625)"/>
       <path id="LiberationSans-75" d="M 981 3381 
L 981 1238 
Q 981 903 1047 718 
Q 1113 534 1256 453 
Q 1400 372 1678 372 
Q 2084 372 2318 650 
Q 2553 928 2553 1422 
L 2553 3381 
L 3116 3381 
L 3116 722 
Q 3116 131 3134 0 
L 2603 0 
Q 2600 16 2597 84 
Q 2594 153 2589 242 
Q 2584 331 2578 578 
L 2569 578 
Q 2375 228 2120 82 
Q 1866 -63 1488 -63 
Q 931 -63 673 214 
Q 416 491 416 1128 
L 416 3381 
L 981 3381 
z
" transform="scale(0.015625)"/>
       <path id="LiberationSans-62" d="M 3291 1706 
Q 3291 -63 2047 -63 
Q 1663 -63 1408 76 
Q 1153 216 994 525 
L 988 525 
Q 988 428 975 229 
Q 963 31 956 0 
L 413 0 
Q 431 169 431 697 
L 431 4638 
L 994 4638 
L 994 3316 
Q 994 3113 981 2838 
L 994 2838 
Q 1150 3163 1408 3303 
Q 1666 3444 2047 3444 
Q 2688 3444 2989 3012 
Q 3291 2581 3291 1706 
z
M 2700 1688 
Q 2700 2397 2512 2703 
Q 2325 3009 1903 3009 
Q 1428 3009 1211 2684 
Q 994 2359 994 1653 
Q 994 988 1206 670 
Q 1419 353 1897 353 
Q 2322 353 2511 667 
Q 2700 981 2700 1688 
z
" transform="scale(0.015625)"/>
       <path id="LiberationSans-73" d="M 2969 934 
Q 2969 456 2608 196 
Q 2247 -63 1597 -63 
Q 966 -63 623 145 
Q 281 353 178 794 
L 675 891 
Q 747 619 972 492 
Q 1197 366 1597 366 
Q 2025 366 2223 497 
Q 2422 628 2422 891 
Q 2422 1091 2284 1216 
Q 2147 1341 1841 1422 
L 1438 1528 
Q 953 1653 748 1773 
Q 544 1894 428 2066 
Q 313 2238 313 2488 
Q 313 2950 642 3192 
Q 972 3434 1603 3434 
Q 2163 3434 2492 3237 
Q 2822 3041 2909 2606 
L 2403 2544 
Q 2356 2769 2151 2889 
Q 1947 3009 1603 3009 
Q 1222 3009 1040 2893 
Q 859 2778 859 2544 
Q 859 2400 934 2306 
Q 1009 2213 1156 2147 
Q 1303 2081 1775 1966 
Q 2222 1853 2419 1758 
Q 2616 1663 2730 1547 
Q 2844 1431 2906 1279 
Q 2969 1128 2969 934 
z
" transform="scale(0.015625)"/>
       <path id="LiberationSans-74" d="M 1731 25 
Q 1453 -50 1163 -50 
Q 488 -50 488 716 
L 488 2972 
L 97 2972 
L 97 3381 
L 509 3381 
L 675 4138 
L 1050 4138 
L 1050 3381 
L 1675 3381 
L 1675 2972 
L 1050 2972 
L 1050 838 
Q 1050 594 1129 495 
Q 1209 397 1406 397 
Q 1519 397 1731 441 
L 1731 25 
z
" transform="scale(0.015625)"/>
       <path id="LiberationSans-69" d="M 428 4100 
L 428 4638 
L 991 4638 
L 991 4100 
L 428 4100 
z
M 428 0 
L 428 3381 
L 991 3381 
L 991 0 
L 428 0 
z
" transform="scale(0.015625)"/>
       <path id="LiberationSans-6f" d="M 3291 1694 
Q 3291 806 2900 371 
Q 2509 -63 1766 -63 
Q 1025 -63 647 389 
Q 269 841 269 1694 
Q 269 3444 1784 3444 
Q 2559 3444 2925 3017 
Q 3291 2591 3291 1694 
z
M 2700 1694 
Q 2700 2394 2492 2711 
Q 2284 3028 1794 3028 
Q 1300 3028 1079 2704 
Q 859 2381 859 1694 
Q 859 1025 1076 689 
Q 1294 353 1759 353 
Q 2266 353 2483 678 
Q 2700 1003 2700 1694 
z
" transform="scale(0.015625)"/>
       <path id="LiberationSans-6e" d="M 2578 0 
L 2578 2144 
Q 2578 2478 2512 2662 
Q 2447 2847 2303 2928 
Q 2159 3009 1881 3009 
Q 1475 3009 1240 2731 
Q 1006 2453 1006 1959 
L 1006 0 
L 444 0 
L 444 2659 
Q 444 3250 425 3381 
L 956 3381 
Q 959 3366 962 3297 
Q 966 3228 970 3139 
Q 975 3050 981 2803 
L 991 2803 
Q 1184 3153 1439 3298 
Q 1694 3444 2072 3444 
Q 2628 3444 2886 3167 
Q 3144 2891 3144 2253 
L 3144 0 
L 2578 0 
z
" transform="scale(0.015625)"/>
      </defs>
      <use xlink:href="#LiberationSans-53"/>
      <use xlink:href="#LiberationSans-75" transform="translate(66.699219 0)"/>
      <use xlink:href="#LiberationSans-62" transform="translate(122.314453 0)"/>
      <use xlink:href="#LiberationSans-73" transform="translate(177.929688 0)"/>
      <use xlink:href="#LiberationSans-74" transform="translate(227.929688 0)"/>
      <use xlink:href="#LiberationSans-69" transform="translate(255.712891 0)"/>
      <use xlink:href="#LiberationSans-74" transform="translate(277.929688 0)"/>
      <use xlink:href="#LiberationSans-75" transform="translate(305.712891 0)"/>
      <use xlink:href="#LiberationSans-74" transform="translate(361.328125 0)"/>
      <use xlink:href="#LiberationSans-69" transform="translate(389.111328 0)"/>
      <use xlink:href="#LiberationSans-6f" transform="translate(411.328125 0)"/>
      <use xlink:href="#LiberationSans-6e" transform="translate(466.943359 0)"/>
      <use xlink:href="#LiberationSans-73" transform="translate(522.558594 0)"/>
     </g>
    </g>
    <g id="line2d_129">
     <path d="M 68.971875 74.17625 
L 80.971875 74.17625 
L 92.971875 74.17625 
" style="fill: none; stroke: #ff0000; stroke-opacity: 0.8; stroke-width: 3; stroke-linecap: round"/>
     <g>
      <use xlink:href="#mc0f51dbd18" x="80.971875" y="74.17625" style="fill: #ff0000; fill-opacity: 0.8; stroke: #ff0000; stroke-opacity: 0.8; stroke-linejoin: miter"/>
     </g>
    </g>
    <g id="text_27">
     <!-- Indels -->
     <g style="fill: #262626" transform="translate(102.571875 78.37625) scale(0.12 -0.12)">
      <defs>
       <path id="LiberationSans-49" d="M 591 0 
L 591 4403 
L 1188 4403 
L 1188 0 
L 591 0 
z
" transform="scale(0.015625)"/>
       <path id="LiberationSans-64" d="M 2566 544 
Q 2409 219 2151 78 
Q 1894 -63 1513 -63 
Q 872 -63 570 368 
Q 269 800 269 1675 
Q 269 3444 1513 3444 
Q 1897 3444 2153 3303 
Q 2409 3163 2566 2856 
L 2572 2856 
L 2566 3234 
L 2566 4638 
L 3128 4638 
L 3128 697 
Q 3128 169 3147 0 
L 2609 0 
Q 2600 50 2589 231 
Q 2578 413 2578 544 
L 2566 544 
z
M 859 1694 
Q 859 984 1046 678 
Q 1234 372 1656 372 
Q 2134 372 2350 703 
Q 2566 1034 2566 1731 
Q 2566 2403 2350 2715 
Q 2134 3028 1663 3028 
Q 1238 3028 1048 2714 
Q 859 2400 859 1694 
z
" transform="scale(0.015625)"/>
       <path id="LiberationSans-65" d="M 863 1572 
Q 863 991 1103 675 
Q 1344 359 1806 359 
Q 2172 359 2392 506 
Q 2613 653 2691 878 
L 3184 738 
Q 2881 -63 1806 -63 
Q 1056 -63 664 384 
Q 272 831 272 1713 
Q 272 2550 664 2997 
Q 1056 3444 1784 3444 
Q 3275 3444 3275 1647 
L 3275 1572 
L 863 1572 
z
M 2694 2003 
Q 2647 2538 2422 2783 
Q 2197 3028 1775 3028 
Q 1366 3028 1127 2754 
Q 888 2481 869 2003 
L 2694 2003 
z
" transform="scale(0.015625)"/>
       <path id="LiberationSans-6c" d="M 431 0 
L 431 4638 
L 994 4638 
L 994 0 
L 431 0 
z
" transform="scale(0.015625)"/>
      </defs>
      <use xlink:href="#LiberationSans-49"/>
      <use xlink:href="#LiberationSans-6e" transform="translate(27.783203 0)"/>
      <use xlink:href="#LiberationSans-64" transform="translate(83.398438 0)"/>
      <use xlink:href="#LiberationSans-65" transform="translate(139.013672 0)"/>
      <use xlink:href="#LiberationSans-6c" transform="translate(194.628906 0)"/>
      <use xlink:href="#LiberationSans-73" transform="translate(216.845703 0)"/>
     </g>
    </g>
   </g>
  </g>
 </g>
 <defs>
  <clipPath id="p0183eca7a3">
   <rect x="58.171875" y="41.69375" width="790.8" height="480.1"/>
  </clipPath>
 </defs>
</svg>
