<?xml version="1.0" encoding="utf-8" standalone="no"?>
<!DOCTYPE svg PUBLIC "-//W3C//DTD SVG 1.1//EN"
  "http://www.w3.org/Graphics/SVG/1.1/DTD/svg11.dtd">
<svg xmlns:xlink="http://www.w3.org/1999/xlink" width="581.2pt" height="113.2pt" viewBox="0 0 581.2 113.2" xmlns="http://www.w3.org/2000/svg" version="1.1">
 <metadata>
  <rdf:RDF xmlns:dc="http://purl.org/dc/elements/1.1/" xmlns:cc="http://creativecommons.org/ns#" xmlns:rdf="http://www.w3.org/1999/02/22-rdf-syntax-ns#">
   <cc:Work>
    <dc:type rdf:resource="http://purl.org/dc/dcmitype/StillImage"/>
    <dc:date>2025-08-17T22:57:01.572389</dc:date>
    <dc:format>image/svg+xml</dc:format>
    <dc:creator>
     <cc:Agent>
      <dc:title>Matplotlib v3.10.3, https://matplotlib.org/</dc:title>
     </cc:Agent>
    </dc:creator>
   </cc:Work>
  </rdf:RDF>
 </metadata>
 <defs>
  <style type="text/css">*{stroke-linejoin: round; stroke-linecap: butt}</style>
 </defs>
 <g id="figure_1">
  <g id="patch_1">
   <path d="M 0 113.2 
L 581.2 113.2 
L 581.2 0 
L 0 0 
z
" style="fill: #ffffff"/>
  </g>
  <g id="axes_1">
   <g id="line2d_1"/>
   <g id="line2d_2"/>
   <g id="line2d_3"/>
   <g id="line2d_4"/>
   <g id="legend_1">
    <g id="patch_2">
     <path d="M 97.709531 79.249375 
L 483.490469 79.249375 
Q 486.290469 79.249375 486.290469 76.449375 
L 486.290469 36.750625 
Q 486.290469 33.950625 483.490469 33.950625 
L 97.709531 33.950625 
Q 94.909531 33.950625 94.909531 36.750625 
L 94.909531 76.449375 
Q 94.909531 79.249375 97.709531 79.249375 
z
" style="fill: #ffffff; opacity: 0.8; stroke: #cccccc; stroke-linejoin: miter"/>
    </g>
    <g id="line2d_5">
     <path d="M 100.509531 45.288437 
L 114.509531 45.288437 
L 128.509531 45.288437 
" style="fill: none; stroke: #1f77b4; stroke-width: 1.5; stroke-linecap: square"/>
     <defs>
      <path id="m380f1a4252" d="M -4.5 4.5 
L 4.5 4.5 
L 4.5 -4.5 
L -4.5 -4.5 
z
" style="stroke: #1f77b4; stroke-linejoin: miter"/>
     </defs>
     <g>
      <use xlink:href="#m380f1a4252" x="114.509531" y="45.288437" style="fill: #1f77b4; stroke: #1f77b4; stroke-linejoin: miter"/>
     </g>
    </g>
    <g id="text_1">
     <!-- Block tree (with indels) -->
     <g transform="translate(135.509531 50.188437) scale(0.14 -0.14)">
      <defs>
       <path id="DejaVuSans-42" d="M 1259 2228 
L 1259 519 
L 2272 519 
Q 2781 519 3026 730 
Q 3272 941 3272 1375 
Q 3272 1813 3026 2020 
Q 2781 2228 2272 2228 
L 1259 2228 
z
M 1259 4147 
L 1259 2741 
L 2194 2741 
Q 2656 2741 2882 2914 
Q 3109 3088 3109 3444 
Q 3109 3797 2882 3972 
Q 2656 4147 2194 4147 
L 1259 4147 
z
M 628 4666 
L 2241 4666 
Q 2963 4666 3353 4366 
Q 3744 4066 3744 3513 
Q 3744 3084 3544 2831 
Q 3344 2578 2956 2516 
Q 3422 2416 3680 2098 
Q 3938 1781 3938 1306 
Q 3938 681 3513 340 
Q 3088 0 2303 0 
L 628 0 
L 628 4666 
z
" transform="scale(0.015625)"/>
       <path id="DejaVuSans-6c" d="M 603 4863 
L 1178 4863 
L 1178 0 
L 603 0 
L 603 4863 
z
" transform="scale(0.015625)"/>
       <path id="DejaVuSans-6f" d="M 1959 3097 
Q 1497 3097 1228 2736 
Q 959 2375 959 1747 
Q 959 1119 1226 758 
Q 1494 397 1959 397 
Q 2419 397 2687 759 
Q 2956 1122 2956 1747 
Q 2956 2369 2687 2733 
Q 2419 3097 1959 3097 
z
M 1959 3584 
Q 2709 3584 3137 3096 
Q 3566 2609 3566 1747 
Q 3566 888 3137 398 
Q 2709 -91 1959 -91 
Q 1206 -91 779 398 
Q 353 888 353 1747 
Q 353 2609 779 3096 
Q 1206 3584 1959 3584 
z
" transform="scale(0.015625)"/>
       <path id="DejaVuSans-63" d="M 3122 3366 
L 3122 2828 
Q 2878 2963 2633 3030 
Q 2388 3097 2138 3097 
Q 1578 3097 1268 2742 
Q 959 2388 959 1747 
Q 959 1106 1268 751 
Q 1578 397 2138 397 
Q 2388 397 2633 464 
Q 2878 531 3122 666 
L 3122 134 
Q 2881 22 2623 -34 
Q 2366 -91 2075 -91 
Q 1284 -91 818 406 
Q 353 903 353 1747 
Q 353 2603 823 3093 
Q 1294 3584 2113 3584 
Q 2378 3584 2631 3529 
Q 2884 3475 3122 3366 
z
" transform="scale(0.015625)"/>
       <path id="DejaVuSans-6b" d="M 581 4863 
L 1159 4863 
L 1159 1991 
L 2875 3500 
L 3609 3500 
L 1753 1863 
L 3688 0 
L 2938 0 
L 1159 1709 
L 1159 0 
L 581 0 
L 581 4863 
z
" transform="scale(0.015625)"/>
       <path id="DejaVuSans-20" transform="scale(0.015625)"/>
       <path id="DejaVuSans-74" d="M 1172 4494 
L 1172 3500 
L 2356 3500 
L 2356 3053 
L 1172 3053 
L 1172 1153 
Q 1172 725 1289 603 
Q 1406 481 1766 481 
L 2356 481 
L 2356 0 
L 1766 0 
Q 1100 0 847 248 
Q 594 497 594 1153 
L 594 3053 
L 172 3053 
L 172 3500 
L 594 3500 
L 594 4494 
L 1172 4494 
z
" transform="scale(0.015625)"/>
       <path id="DejaVuSans-72" d="M 2631 2963 
Q 2534 3019 2420 3045 
Q 2306 3072 2169 3072 
Q 1681 3072 1420 2755 
Q 1159 2438 1159 1844 
L 1159 0 
L 581 0 
L 581 3500 
L 1159 3500 
L 1159 2956 
Q 1341 3275 1631 3429 
Q 1922 3584 2338 3584 
Q 2397 3584 2469 3576 
Q 2541 3569 2628 3553 
L 2631 2963 
z
" transform="scale(0.015625)"/>
       <path id="DejaVuSans-65" d="M 3597 1894 
L 3597 1613 
L 953 1613 
Q 991 1019 1311 708 
Q 1631 397 2203 397 
Q 2534 397 2845 478 
Q 3156 559 3463 722 
L 3463 178 
Q 3153 47 2828 -22 
Q 2503 -91 2169 -91 
Q 1331 -91 842 396 
Q 353 884 353 1716 
Q 353 2575 817 3079 
Q 1281 3584 2069 3584 
Q 2775 3584 3186 3129 
Q 3597 2675 3597 1894 
z
M 3022 2063 
Q 3016 2534 2758 2815 
Q 2500 3097 2075 3097 
Q 1594 3097 1305 2825 
Q 1016 2553 972 2059 
L 3022 2063 
z
" transform="scale(0.015625)"/>
       <path id="DejaVuSans-28" d="M 1984 4856 
Q 1566 4138 1362 3434 
Q 1159 2731 1159 2009 
Q 1159 1288 1364 580 
Q 1569 -128 1984 -844 
L 1484 -844 
Q 1016 -109 783 600 
Q 550 1309 550 2009 
Q 550 2706 781 3412 
Q 1013 4119 1484 4856 
L 1984 4856 
z
" transform="scale(0.015625)"/>
       <path id="DejaVuSans-77" d="M 269 3500 
L 844 3500 
L 1563 769 
L 2278 3500 
L 2956 3500 
L 3675 769 
L 4391 3500 
L 4966 3500 
L 4050 0 
L 3372 0 
L 2619 2869 
L 1863 0 
L 1184 0 
L 269 3500 
z
" transform="scale(0.015625)"/>
       <path id="DejaVuSans-69" d="M 603 3500 
L 1178 3500 
L 1178 0 
L 603 0 
L 603 3500 
z
M 603 4863 
L 1178 4863 
L 1178 4134 
L 603 4134 
L 603 4863 
z
" transform="scale(0.015625)"/>
       <path id="DejaVuSans-68" d="M 3513 2113 
L 3513 0 
L 2938 0 
L 2938 2094 
Q 2938 2591 2744 2837 
Q 2550 3084 2163 3084 
Q 1697 3084 1428 2787 
Q 1159 2491 1159 1978 
L 1159 0 
L 581 0 
L 581 4863 
L 1159 4863 
L 1159 2956 
Q 1366 3272 1645 3428 
Q 1925 3584 2291 3584 
Q 2894 3584 3203 3211 
Q 3513 2838 3513 2113 
z
" transform="scale(0.015625)"/>
       <path id="DejaVuSans-6e" d="M 3513 2113 
L 3513 0 
L 2938 0 
L 2938 2094 
Q 2938 2591 2744 2837 
Q 2550 3084 2163 3084 
Q 1697 3084 1428 2787 
Q 1159 2491 1159 1978 
L 1159 0 
L 581 0 
L 581 3500 
L 1159 3500 
L 1159 2956 
Q 1366 3272 1645 3428 
Q 1925 3584 2291 3584 
Q 2894 3584 3203 3211 
Q 3513 2838 3513 2113 
z
" transform="scale(0.015625)"/>
       <path id="DejaVuSans-64" d="M 2906 2969 
L 2906 4863 
L 3481 4863 
L 3481 0 
L 2906 0 
L 2906 525 
Q 2725 213 2448 61 
Q 2172 -91 1784 -91 
Q 1150 -91 751 415 
Q 353 922 353 1747 
Q 353 2572 751 3078 
Q 1150 3584 1784 3584 
Q 2172 3584 2448 3432 
Q 2725 3281 2906 2969 
z
M 947 1747 
Q 947 1113 1208 752 
Q 1469 391 1925 391 
Q 2381 391 2643 752 
Q 2906 1113 2906 1747 
Q 2906 2381 2643 2742 
Q 2381 3103 1925 3103 
Q 1469 3103 1208 2742 
Q 947 2381 947 1747 
z
" transform="scale(0.015625)"/>
       <path id="DejaVuSans-73" d="M 2834 3397 
L 2834 2853 
Q 2591 2978 2328 3040 
Q 2066 3103 1784 3103 
Q 1356 3103 1142 2972 
Q 928 2841 928 2578 
Q 928 2378 1081 2264 
Q 1234 2150 1697 2047 
L 1894 2003 
Q 2506 1872 2764 1633 
Q 3022 1394 3022 966 
Q 3022 478 2636 193 
Q 2250 -91 1575 -91 
Q 1294 -91 989 -36 
Q 684 19 347 128 
L 347 722 
Q 666 556 975 473 
Q 1284 391 1588 391 
Q 1994 391 2212 530 
Q 2431 669 2431 922 
Q 2431 1156 2273 1281 
Q 2116 1406 1581 1522 
L 1381 1569 
Q 847 1681 609 1914 
Q 372 2147 372 2553 
Q 372 3047 722 3315 
Q 1072 3584 1716 3584 
Q 2034 3584 2315 3537 
Q 2597 3491 2834 3397 
z
" transform="scale(0.015625)"/>
       <path id="DejaVuSans-29" d="M 513 4856 
L 1013 4856 
Q 1481 4119 1714 3412 
Q 1947 2706 1947 2009 
Q 1947 1309 1714 600 
Q 1481 -109 1013 -844 
L 513 -844 
Q 928 -128 1133 580 
Q 1338 1288 1338 2009 
Q 1338 2731 1133 3434 
Q 928 4138 513 4856 
z
" transform="scale(0.015625)"/>
      </defs>
      <use xlink:href="#DejaVuSans-42"/>
      <use xlink:href="#DejaVuSans-6c" transform="translate(68.603516 0)"/>
      <use xlink:href="#DejaVuSans-6f" transform="translate(96.386719 0)"/>
      <use xlink:href="#DejaVuSans-63" transform="translate(157.568359 0)"/>
      <use xlink:href="#DejaVuSans-6b" transform="translate(212.548828 0)"/>
      <use xlink:href="#DejaVuSans-20" transform="translate(270.458984 0)"/>
      <use xlink:href="#DejaVuSans-74" transform="translate(302.246094 0)"/>
      <use xlink:href="#DejaVuSans-72" transform="translate(341.455078 0)"/>
      <use xlink:href="#DejaVuSans-65" transform="translate(380.318359 0)"/>
      <use xlink:href="#DejaVuSans-65" transform="translate(441.841797 0)"/>
      <use xlink:href="#DejaVuSans-20" transform="translate(503.365234 0)"/>
      <use xlink:href="#DejaVuSans-28" transform="translate(535.152344 0)"/>
      <use xlink:href="#DejaVuSans-77" transform="translate(574.166016 0)"/>
      <use xlink:href="#DejaVuSans-69" transform="translate(655.953125 0)"/>
      <use xlink:href="#DejaVuSans-74" transform="translate(683.736328 0)"/>
      <use xlink:href="#DejaVuSans-68" transform="translate(722.945312 0)"/>
      <use xlink:href="#DejaVuSans-20" transform="translate(786.324219 0)"/>
      <use xlink:href="#DejaVuSans-69" transform="translate(818.111328 0)"/>
      <use xlink:href="#DejaVuSans-6e" transform="translate(845.894531 0)"/>
      <use xlink:href="#DejaVuSans-64" transform="translate(909.273438 0)"/>
      <use xlink:href="#DejaVuSans-65" transform="translate(972.75 0)"/>
      <use xlink:href="#DejaVuSans-6c" transform="translate(1034.273438 0)"/>
      <use xlink:href="#DejaVuSans-73" transform="translate(1062.056641 0)"/>
      <use xlink:href="#DejaVuSans-29" transform="translate(1114.15625 0)"/>
     </g>
    </g>
    <g id="line2d_6">
     <path d="M 100.509531 65.837812 
L 114.509531 65.837812 
L 128.509531 65.837812 
" style="fill: none; stroke: #ff7f0e; stroke-width: 1.5; stroke-linecap: square"/>
     <defs>
      <path id="m75c684f61c" d="M -0 6.363961 
L 6.363961 0 
L 0 -6.363961 
L -6.363961 -0 
z
" style="stroke: #ff7f0e; stroke-linejoin: miter"/>
     </defs>
     <g>
      <use xlink:href="#m75c684f61c" x="114.509531" y="65.837812" style="fill: #ff7f0e; stroke: #ff7f0e; stroke-linejoin: miter"/>
     </g>
    </g>
    <g id="text_2">
     <!-- Block tree (no indels) -->
     <g transform="translate(135.509531 70.737812) scale(0.14 -0.14)">
      <use xlink:href="#DejaVuSans-42"/>
      <use xlink:href="#DejaVuSans-6c" transform="translate(68.603516 0)"/>
      <use xlink:href="#DejaVuSans-6f" transform="translate(96.386719 0)"/>
      <use xlink:href="#DejaVuSans-63" transform="translate(157.568359 0)"/>
      <use xlink:href="#DejaVuSans-6b" transform="translate(212.548828 0)"/>
      <use xlink:href="#DejaVuSans-20" transform="translate(270.458984 0)"/>
      <use xlink:href="#DejaVuSans-74" transform="translate(302.246094 0)"/>
      <use xlink:href="#DejaVuSans-72" transform="translate(341.455078 0)"/>
      <use xlink:href="#DejaVuSans-65" transform="translate(380.318359 0)"/>
      <use xlink:href="#DejaVuSans-65" transform="translate(441.841797 0)"/>
      <use xlink:href="#DejaVuSans-20" transform="translate(503.365234 0)"/>
      <use xlink:href="#DejaVuSans-28" transform="translate(535.152344 0)"/>
      <use xlink:href="#DejaVuSans-6e" transform="translate(574.166016 0)"/>
      <use xlink:href="#DejaVuSans-6f" transform="translate(637.544922 0)"/>
      <use xlink:href="#DejaVuSans-20" transform="translate(698.726562 0)"/>
      <use xlink:href="#DejaVuSans-69" transform="translate(730.513672 0)"/>
      <use xlink:href="#DejaVuSans-6e" transform="translate(758.296875 0)"/>
      <use xlink:href="#DejaVuSans-64" transform="translate(821.675781 0)"/>
      <use xlink:href="#DejaVuSans-65" transform="translate(885.152344 0)"/>
      <use xlink:href="#DejaVuSans-6c" transform="translate(946.675781 0)"/>
      <use xlink:href="#DejaVuSans-73" transform="translate(974.458984 0)"/>
      <use xlink:href="#DejaVuSans-29" transform="translate(1026.558594 0)"/>
     </g>
    </g>
    <g id="line2d_7">
     <path d="M 310.951406 45.288437 
L 324.951406 45.288437 
L 338.951406 45.288437 
" style="fill: none; stroke: #2ca02c; stroke-width: 1.5; stroke-linecap: square"/>
     <defs>
      <path id="m5a85ca74ee" d="M 0 -4.5 
L -4.5 4.5 
L 4.5 4.5 
z
" style="stroke: #2ca02c; stroke-linejoin: miter"/>
     </defs>
     <g>
      <use xlink:href="#m5a85ca74ee" x="324.951406" y="45.288437" style="fill: #2ca02c; stroke: #2ca02c; stroke-linejoin: miter"/>
     </g>
    </g>
    <g id="text_3">
     <!-- AliSim (with indels) -->
     <g transform="translate(345.951406 50.188437) scale(0.14 -0.14)">
      <defs>
       <path id="DejaVuSans-41" d="M 2188 4044 
L 1331 1722 
L 3047 1722 
L 2188 4044 
z
M 1831 4666 
L 2547 4666 
L 4325 0 
L 3669 0 
L 3244 1197 
L 1141 1197 
L 716 0 
L 50 0 
L 1831 4666 
z
" transform="scale(0.015625)"/>
       <path id="DejaVuSans-53" d="M 3425 4513 
L 3425 3897 
Q 3066 4069 2747 4153 
Q 2428 4238 2131 4238 
Q 1616 4238 1336 4038 
Q 1056 3838 1056 3469 
Q 1056 3159 1242 3001 
Q 1428 2844 1947 2747 
L 2328 2669 
Q 3034 2534 3370 2195 
Q 3706 1856 3706 1288 
Q 3706 609 3251 259 
Q 2797 -91 1919 -91 
Q 1588 -91 1214 -16 
Q 841 59 441 206 
L 441 856 
Q 825 641 1194 531 
Q 1563 422 1919 422 
Q 2459 422 2753 634 
Q 3047 847 3047 1241 
Q 3047 1584 2836 1778 
Q 2625 1972 2144 2069 
L 1759 2144 
Q 1053 2284 737 2584 
Q 422 2884 422 3419 
Q 422 4038 858 4394 
Q 1294 4750 2059 4750 
Q 2388 4750 2728 4690 
Q 3069 4631 3425 4513 
z
" transform="scale(0.015625)"/>
       <path id="DejaVuSans-6d" d="M 3328 2828 
Q 3544 3216 3844 3400 
Q 4144 3584 4550 3584 
Q 5097 3584 5394 3201 
Q 5691 2819 5691 2113 
L 5691 0 
L 5113 0 
L 5113 2094 
Q 5113 2597 4934 2840 
Q 4756 3084 4391 3084 
Q 3944 3084 3684 2787 
Q 3425 2491 3425 1978 
L 3425 0 
L 2847 0 
L 2847 2094 
Q 2847 2600 2669 2842 
Q 2491 3084 2119 3084 
Q 1678 3084 1418 2786 
Q 1159 2488 1159 1978 
L 1159 0 
L 581 0 
L 581 3500 
L 1159 3500 
L 1159 2956 
Q 1356 3278 1631 3431 
Q 1906 3584 2284 3584 
Q 2666 3584 2933 3390 
Q 3200 3197 3328 2828 
z
" transform="scale(0.015625)"/>
      </defs>
      <use xlink:href="#DejaVuSans-41"/>
      <use xlink:href="#DejaVuSans-6c" transform="translate(68.408203 0)"/>
      <use xlink:href="#DejaVuSans-69" transform="translate(96.191406 0)"/>
      <use xlink:href="#DejaVuSans-53" transform="translate(123.974609 0)"/>
      <use xlink:href="#DejaVuSans-69" transform="translate(187.451172 0)"/>
      <use xlink:href="#DejaVuSans-6d" transform="translate(215.234375 0)"/>
      <use xlink:href="#DejaVuSans-20" transform="translate(312.646484 0)"/>
      <use xlink:href="#DejaVuSans-28" transform="translate(344.433594 0)"/>
      <use xlink:href="#DejaVuSans-77" transform="translate(383.447266 0)"/>
      <use xlink:href="#DejaVuSans-69" transform="translate(465.234375 0)"/>
      <use xlink:href="#DejaVuSans-74" transform="translate(493.017578 0)"/>
      <use xlink:href="#DejaVuSans-68" transform="translate(532.226562 0)"/>
      <use xlink:href="#DejaVuSans-20" transform="translate(595.605469 0)"/>
      <use xlink:href="#DejaVuSans-69" transform="translate(627.392578 0)"/>
      <use xlink:href="#DejaVuSans-6e" transform="translate(655.175781 0)"/>
      <use xlink:href="#DejaVuSans-64" transform="translate(718.554688 0)"/>
      <use xlink:href="#DejaVuSans-65" transform="translate(782.03125 0)"/>
      <use xlink:href="#DejaVuSans-6c" transform="translate(843.554688 0)"/>
      <use xlink:href="#DejaVuSans-73" transform="translate(871.337891 0)"/>
      <use xlink:href="#DejaVuSans-29" transform="translate(923.4375 0)"/>
     </g>
    </g>
    <g id="line2d_8">
     <path d="M 310.951406 65.837812 
L 324.951406 65.837812 
L 338.951406 65.837812 
" style="fill: none; stroke: #d62728; stroke-width: 1.5; stroke-linecap: square"/>
     <defs>
      <path id="m897b49de4d" d="M -0 4.5 
L 4.5 -4.5 
L -4.5 -4.5 
z
" style="stroke: #d62728; stroke-linejoin: miter"/>
     </defs>
     <g>
      <use xlink:href="#m897b49de4d" x="324.951406" y="65.837812" style="fill: #d62728; stroke: #d62728; stroke-linejoin: miter"/>
     </g>
    </g>
    <g id="text_4">
     <!-- AliSim (no indels) -->
     <g transform="translate(345.951406 70.737812) scale(0.14 -0.14)">
      <use xlink:href="#DejaVuSans-41"/>
      <use xlink:href="#DejaVuSans-6c" transform="translate(68.408203 0)"/>
      <use xlink:href="#DejaVuSans-69" transform="translate(96.191406 0)"/>
      <use xlink:href="#DejaVuSans-53" transform="translate(123.974609 0)"/>
      <use xlink:href="#DejaVuSans-69" transform="translate(187.451172 0)"/>
      <use xlink:href="#DejaVuSans-6d" transform="translate(215.234375 0)"/>
      <use xlink:href="#DejaVuSans-20" transform="translate(312.646484 0)"/>
      <use xlink:href="#DejaVuSans-28" transform="translate(344.433594 0)"/>
      <use xlink:href="#DejaVuSans-6e" transform="translate(383.447266 0)"/>
      <use xlink:href="#DejaVuSans-6f" transform="translate(446.826172 0)"/>
      <use xlink:href="#DejaVuSans-20" transform="translate(508.007812 0)"/>
      <use xlink:href="#DejaVuSans-69" transform="translate(539.794922 0)"/>
      <use xlink:href="#DejaVuSans-6e" transform="translate(567.578125 0)"/>
      <use xlink:href="#DejaVuSans-64" transform="translate(630.957031 0)"/>
      <use xlink:href="#DejaVuSans-65" transform="translate(694.433594 0)"/>
      <use xlink:href="#DejaVuSans-6c" transform="translate(755.957031 0)"/>
      <use xlink:href="#DejaVuSans-73" transform="translate(783.740234 0)"/>
      <use xlink:href="#DejaVuSans-29" transform="translate(835.839844 0)"/>
     </g>
    </g>
   </g>
  </g>
 </g>
</svg>
